<?xml version="1.0" encoding="utf-8"?>
<!-- Generator: Adobe Illustrator 22.1.0, SVG Export Plug-In . SVG Version: 6.00 Build 0)  -->
<svg version="1.1" id="Warstwa_1" xmlns="http://www.w3.org/2000/svg" xmlns:xlink="http://www.w3.org/1999/xlink" x="0px" y="0px"
	 viewBox="0 0 73.7 21.5" style="enable-background:new 0 0 73.7 21.5;" xml:space="preserve">
<style type="text/css">
	.st0{fill:#fff;}
</style>
<g>
	<path class="st0" d="M68.1,21.5c-0.4,0-0.7,0-1.1-0.1c-1.6-0.3-2.9-1.3-3.7-2.7l0,0c-0.4-0.8-0.1-1.8,0.6-2.2
		c0.2-0.2,0.5-0.2,0.8-0.2c0.6,0,1.1,0.3,1.4,0.8c0,0,0,0.1,0.1,0.1l0.2,0.2l0.2,0.2c0.3,0.3,0.7,0.4,1.1,0.5c0.6,0.1,1.3,0,1.8-0.4
		c0.5-0.4,0.9-1,0.9-1.7c0.1-0.7-0.2-1.3-0.6-1.8c0,0-5.3-5.5-5.5-5.7l-0.3-0.4c-0.6-1-0.9-2.1-0.8-3.3c0.1-0.8,0.3-1.6,0.7-2.3
		l0.2-0.4c0-0.1,0.7-1,1.6-1.5l0.3-0.2c1.1-0.6,2.4-0.8,3.7-0.6c1.5,0.3,2.8,1.3,3.6,2.6c0.2,0.4,0.3,0.8,0.2,1.2
		c-0.1,0.4-0.4,0.8-0.8,1c-0.2,0.1-0.5,0.2-0.8,0.2c-0.6,0-1.1-0.3-1.4-0.8c-0.3-0.5-0.8-0.9-1.4-1c-0.6-0.1-1.2,0-1.7,0.4
		c-0.5,0.4-0.8,0.9-0.8,1.5c0,0.6,0.2,1.2,0.6,1.7l5,5.2c1.1,1.1,1.7,2.7,1.6,4.3c-0.1,1.6-0.9,3.1-2.2,4
		C70.5,21.1,69.3,21.5,68.1,21.5"/>
	<path class="st0" d="M52.2,21.5c-3,0-5.4-2.4-5.4-5.4V5.4c0-3,2.4-5.4,5.4-5.4c3,0,5.4,2.4,5.4,5.4v10.7
		C57.7,19.1,55.2,21.5,52.2,21.5 M52.2,3.3c-1.2,0-2.1,1-2.1,2.1v10.7c0,1.2,0.9,2.1,2.1,2.1c1.2,0,2.1-1,2.1-2.1V5.4
		C54.4,4.2,53.4,3.3,52.2,3.3"/>
	<path class="st0" d="M31.3,11v8.8c0,0.9-0.7,1.6-1.6,1.6c-0.9,0-1.6-0.7-1.6-1.6V4.3L31.3,11z M40.1,17.2V1.6
		c0-0.9-0.7-1.6-1.6-1.6c-0.9,0-1.6,0.7-1.6,1.6v8.8L40.1,17.2z M31.1,0.9L31.1,0.9C30.8,0.4,30.2,0,29.6,0c-0.1,0-0.2,0-0.3,0
		C28.5,0.2,28,0.8,28,1.6V2l9,18.6c0.3,0.5,0.9,0.9,1.4,0.9c0.1,0,0.3,0,0.4,0c0.7-0.2,1.3-0.8,1.3-1.6v-0.4
		C40.1,19.5,31.4,1.4,31.1,0.9"/>
	<path class="st0" d="M15.8,21.5c-1.4,0-2.8-0.6-3.8-1.6c-1-1-1.6-2.4-1.6-3.8V5.4c0-1.4,0.6-2.8,1.6-3.8c1-1,2.4-1.6,3.8-1.6
		c1.4,0,2.8,0.6,3.8,1.6c1,1,1.6,2.4,1.6,3.8v10.7c0,1.4-0.6,2.8-1.6,3.8C18.6,20.9,17.2,21.5,15.8,21.5 M15.8,3.3
		c-0.6,0-1.1,0.2-1.5,0.6c-0.4,0.4-0.6,0.9-0.6,1.5v10.7c0,0.6,0.2,1.1,0.6,1.5c0.4,0.4,0.9,0.6,1.5,0.6c0.6,0,1.1-0.2,1.5-0.6
		c0.4-0.4,0.6-0.9,0.6-1.5V5.4c0-0.6-0.2-1.1-0.6-1.5C16.9,3.5,16.3,3.3,15.8,3.3"/>
	<path class="st0" d="M1.8,21.5c-1,0-1.8-0.8-1.8-1.8V1.8l0,0C0,0.8,0.8,0,1.8,0c0.8,0,1.5,0.5,1.7,1.3c0,0,0,0.1,0,0.1l0,0.1
		c0,0.1,0,0.2,0,0.3c0,0,0,17.7,0,17.9C3.6,20.7,2.8,21.5,1.8,21.5"/>
</g>
</svg>
