<?xml version="1.0" encoding="utf-8"?>
<!-- Generator: Adobe Illustrator 18.1.0, SVG Export Plug-In . SVG Version: 6.00 Build 0)  -->
<svg version="1.1" id="Layer_2" xmlns="http://www.w3.org/2000/svg" xmlns:xlink="http://www.w3.org/1999/xlink" x="0px" y="0px"
	 width="100px" height="30px" viewBox="0 0 100 30" enable-background="new 0 0 100 30" xml:space="preserve">
<path fill-rule="evenodd" clip-rule="evenodd" fill="#134391" d="M47.6,7.5L43.5,23H25.7c-4.2,0-6.7-3.4-5.6-7.6
	c1.1-4.2,5.4-7.6,9.7-7.6H40l-1.4,5.1H28.4c-1.4,0-2.9,1.1-3.2,2.6c-0.4,1.4,0.5,2.6,1.9,2.6h12.8l2.8-10.5c0.2-1.3-0.6-2.3-1.9-2.3
	c-5.9,0-11.9,0-17.8,0L24.2,0L42,0C46.2,0,48.7,3.4,47.6,7.5L47.6,7.5z M82,25.6l-10.5,4.9l0.8-2.5c-8.4,0-16.8,0-25.2,0
	c-1.4,0-2.2-1.1-1.9-2.5l0,0l0.7-2.5l17.2-10.1H48.7l1.4-5.1H73c1.4,0,2.2,1.1,1.9,2.5l0,0l-0.7,2.5L57,22.9c5.5,0,11.1,0,16.6,0
	l0.6-2.3L82,25.6z"/>
</svg>
