<?xml version="1.0" encoding="utf-8"?>
<!-- Generator: Adobe Illustrator 18.1.0, SVG Export Plug-In . SVG Version: 6.00 Build 0)  -->
<svg version="1.1" id="Warstwa_1" xmlns="http://www.w3.org/2000/svg" xmlns:xlink="http://www.w3.org/1999/xlink" x="0px" y="0px"
	 width="62.5px" height="30px" viewBox="18.8 0 62.5 30" enable-background="new 18.8 0 62.5 30" xml:space="preserve">
<path fill-rule="evenodd" clip-rule="evenodd" fill="#FFFFFF" d="M46.8,7.5l-4,15.1H25.3c-4.1,0-6.6-3.4-5.5-7.5
	c1.1-4.1,5.3-7.5,9.5-7.5h10l-1.4,5h-10c-1.4,0-2.8,1.1-3.2,2.5c-0.4,1.4,0.5,2.5,1.8,2.5h12.5l2.7-10.3c0.2-1.3-0.6-2.3-1.9-2.3
	c-5.8,0-11.7,0-17.5,0l1.4-5l17.4,0C45.3,0.1,47.8,3.5,46.8,7.5L46.8,7.5z M80.5,25.2L70.2,30l0.7-2.5c-8.2,0-16.4,0-24.6,0
	c-1.4,0-2.2-1.1-1.8-2.5l0,0l0.7-2.5L62,12.7H47.8l1.4-5h22.4c1.4,0,2.2,1.1,1.8,2.5l0,0l-0.7,2.5l-16.9,9.9c5.4,0,10.9,0,16.3,0
	l0.6-2.3L80.5,25.2z"/>
</svg>
