<svg width="171" height="51" viewBox="0 0 171 51" fill="none" xmlns="http://www.w3.org/2000/svg">
<g clip-path="url(#clip0)">
<path d="M157.622 50.4927C156.766 50.5306 155.91 50.4531 155.075 50.2622C153.277 49.9132 151.578 49.1747 150.098 48.0989C148.618 47.0232 147.394 45.6365 146.512 44.037C146.071 43.1705 145.969 42.1717 146.226 41.2345C146.482 40.2973 147.079 39.4884 147.9 38.9647C148.432 38.5731 149.098 38.4073 149.752 38.5036C150.408 38.4977 151.053 38.6654 151.623 38.9895C152.192 39.3136 152.665 39.7824 152.992 40.3481C152.992 40.4092 153.017 40.4679 153.06 40.5111C153.104 40.5544 153.162 40.5786 153.224 40.5786L153.687 41.0398L154.15 41.5009C154.875 42.1122 155.756 42.5113 156.696 42.6537C157.417 42.7918 158.158 42.7812 158.875 42.6226C159.591 42.464 160.268 42.1607 160.862 41.7314C161.481 41.2744 161.989 40.6851 162.35 40.0069C162.71 39.3287 162.913 38.5787 162.945 37.8119C163.019 37.0618 162.933 36.3047 162.694 35.5897C162.455 34.8747 162.067 34.2178 161.556 33.6618L148.826 20.5199L148.132 19.5976C146.712 17.3245 146.063 14.6574 146.28 11.9891C146.465 10.1325 147.015 8.33047 147.9 6.68623L148.363 5.76399C149.295 4.32643 150.566 3.13882 152.067 2.30558L152.761 1.84446C155.386 0.460163 158.395 -0.0259201 161.325 0.461097C163.05 0.842823 164.679 1.57138 166.112 2.60215C167.545 3.63292 168.751 4.9442 169.657 6.45567C170.145 7.29095 170.309 8.27478 170.12 9.2224C169.989 9.71358 169.756 10.1722 169.438 10.5691C169.119 10.966 168.721 11.2926 168.269 11.528C167.693 11.8163 167.061 11.9738 166.417 11.9891C165.761 11.995 165.116 11.8273 164.546 11.5032C163.977 11.1792 163.504 10.7103 163.176 10.1446C162.834 9.55136 162.367 9.03842 161.808 8.64061C161.249 8.24279 160.611 7.96942 159.936 7.83904C159.252 7.701 158.547 7.71195 157.867 7.87114C157.188 8.03033 156.552 8.33398 156.001 8.76128C155.444 9.15492 154.987 9.67239 154.666 10.2727C154.344 10.873 154.168 11.5396 154.15 12.2197C154.152 13.6455 154.642 15.0279 155.538 16.1392L167.111 28.1284C168.391 29.4301 169.383 30.9854 170.021 32.6934C170.659 34.4013 170.929 36.2237 170.815 38.0425C170.716 39.862 170.207 41.636 169.325 43.2326C168.444 44.8293 167.212 46.2075 165.722 47.2649C163.539 49.338 160.638 50.4939 157.622 50.4927Z" fill="white"/>
<path d="M120.82 50.4929C119.177 50.499 117.549 50.1811 116.03 49.5576C114.511 48.9341 113.13 48.0172 111.969 46.8599C110.807 45.7026 109.886 44.3276 109.26 42.8143C108.634 41.301 108.315 39.6793 108.321 38.0426V13.3726C108.321 10.0706 109.638 6.90384 111.982 4.56896C114.326 2.23408 117.505 0.922363 120.82 0.922363C124.135 0.922363 127.314 2.23408 129.658 4.56896C132.002 6.90384 133.319 10.0706 133.319 13.3726V38.0426C133.344 39.6845 133.037 41.3146 132.418 42.8364C131.799 44.3582 130.879 45.7406 129.714 46.9017C128.548 48.0628 127.16 48.979 125.632 49.5959C124.105 50.2127 122.468 50.5178 120.82 50.4929ZM120.82 8.53086C119.533 8.53693 118.3 9.04899 117.39 9.95568C116.48 10.8624 115.966 12.0904 115.959 13.3726V38.0426C115.944 38.6828 116.058 39.3195 116.297 39.914C116.536 40.5086 116.893 41.0487 117.348 41.5015C117.802 41.9543 118.344 42.3103 118.941 42.5481C119.538 42.7858 120.177 42.9002 120.82 42.8844C122.107 42.8783 123.34 42.3663 124.25 41.4596C125.16 40.5529 125.675 39.3249 125.681 38.0426V13.3726C125.714 12.7281 125.611 12.0837 125.378 11.4813C125.146 10.8789 124.789 10.3318 124.331 9.87538C123.873 9.419 123.324 9.06351 122.719 8.83191C122.114 8.6003 121.467 8.49774 120.82 8.53086Z" fill="white"/>
<path d="M72.4463 26.284V46.5734C72.4463 47.5517 72.0561 48.49 71.3616 49.1819C70.6671 49.8737 69.7251 50.2623 68.743 50.2623C67.7608 50.2623 66.8188 49.8737 66.1243 49.1819C65.4298 48.49 65.0397 47.5517 65.0397 46.5734V10.8365L72.4463 26.284ZM92.8144 40.5788V4.61133C92.8144 3.63296 92.4242 2.69465 91.7297 2.00284C91.0352 1.31102 90.0933 0.922363 89.1111 0.922363C88.1289 0.922363 87.187 1.31102 86.4925 2.00284C85.798 2.69465 85.4078 3.63296 85.4078 4.61133V24.9007L92.8144 40.5788ZM71.9833 2.99741C71.6198 2.39445 71.113 1.88981 70.5076 1.52795C69.9021 1.16609 69.2166 0.958119 68.5115 0.922363H67.8171C66.9595 1.08529 66.1873 1.54481 65.6367 2.21978C65.0862 2.89476 64.7927 3.74178 64.8082 4.61133V5.53358L85.6393 48.4178C85.9777 48.993 86.4475 49.4807 87.0105 49.8412C87.5735 50.2017 88.2138 50.425 88.8797 50.4929H89.8055C90.6416 50.2878 91.3877 49.8166 91.9308 49.1509C92.4738 48.4851 92.784 47.6612 92.8144 46.8039V45.8817C92.8144 45.8817 72.6777 4.15021 71.9833 2.99741Z" fill="white"/>
<path d="M36.5704 50.4929C33.2668 50.4569 30.1086 49.1337 27.7725 46.8065C25.4363 44.4794 24.1079 41.3335 24.0718 38.0426V13.3726C24.0718 10.0706 25.3886 6.90384 27.7325 4.56896C30.0765 2.23408 33.2556 0.922363 36.5704 0.922363C39.8853 0.922363 43.0643 2.23408 45.4083 4.56896C47.7522 6.90384 49.0691 10.0706 49.0691 13.3726V38.0426C49.033 41.3335 47.7045 44.4794 45.3684 46.8065C43.0322 49.1337 39.8741 50.4569 36.5704 50.4929ZM36.5704 8.53086C35.9278 8.51505 35.2886 8.62948 34.6917 8.8672C34.0949 9.10493 33.5527 9.46099 33.0981 9.91378C32.6436 10.3666 32.2861 10.9066 32.0475 11.5012C31.8088 12.0958 31.694 12.7325 31.7098 13.3726V38.0426C31.7098 38.6784 31.8356 39.3081 32.0798 39.8955C32.3241 40.4829 32.6821 41.0167 33.1335 41.4663C33.5848 41.9159 34.1206 42.2725 34.7104 42.5158C35.3001 42.7592 35.9321 42.8844 36.5704 42.8844C37.2087 42.8844 37.8408 42.7592 38.4305 42.5158C39.0202 42.2725 39.556 41.9159 40.0074 41.4663C40.4587 41.0167 40.8167 40.4829 41.061 39.8955C41.3053 39.3081 41.431 38.6784 41.431 38.0426V13.3726C41.4537 12.7317 41.3419 12.093 41.1028 11.4975C40.8637 10.902 40.5025 10.3628 40.0423 9.91423C39.103 9.0312 37.8619 8.53671 36.5704 8.53086Z" fill="white"/>
<path d="M4.16628 50.493C3.61831 50.496 3.07517 50.3908 2.56831 50.1833C2.06146 49.9758 1.60096 49.6702 1.21348 49.2843C0.825995 48.8983 0.519231 48.4396 0.310946 47.9347C0.102662 47.4298 -0.00300493 46.8887 6.50225e-05 46.3429V5.07254C-0.00300493 4.52669 0.102662 3.98565 0.310946 3.48076C0.519231 2.97587 0.825995 2.51715 1.21348 2.13117C1.60096 1.74519 2.06146 1.43961 2.56831 1.23213C3.07517 1.02465 3.61831 0.919396 4.16628 0.922454C5.06661 0.901592 5.94717 1.18721 6.66255 1.73215C7.37793 2.27709 7.88535 3.04876 8.10104 3.91974V46.3429C8.15064 46.8806 8.08476 47.4227 7.90776 47.9331C7.73077 48.4435 7.44673 48.9105 7.07452 49.3031C6.70231 49.6957 6.25046 50.0048 5.74902 50.21C5.24758 50.4151 4.70805 50.5116 4.16628 50.493Z" fill="white"/>
</g>
<defs>
<clipPath id="clip0">
<rect width="171" height="51" fill="white"/>
</clipPath>
</defs>
</svg>
