<svg width="503" height="322" viewBox="0 0 503 322" fill="none" xmlns="http://www.w3.org/2000/svg">
<path fill-rule="evenodd" clip-rule="evenodd" d="M482.555 78.3779C482.306 78.1971 481.716 78.133 481.442 78.0788C480.301 77.8539 479.125 77.756 477.962 77.756C474.376 77.7613 470.731 78.1134 467.204 78.7227C464.965 79.1095 462.257 80.4113 460.03 79.7043C456.149 78.4725 452.227 78.533 448.545 80.2916C445.179 81.8996 442.623 84.9536 441.132 88.2534C440.907 88.7516 439.994 90.585 439.736 91.8209C439.625 92.0736 439.519 92.328 439.423 92.5863C439.152 93.3194 438.908 94.0656 438.682 94.8131C438.585 95.132 438.342 95.8361 438.631 95.9722C438.17 96.8237 437.761 97.7012 437.42 98.6072C436.429 101.242 435.346 104.132 434.998 106.925C434.869 107.959 434.864 108.999 434.984 110.035C435.043 110.547 435.019 111.577 435.366 111.966C436.103 112.792 436.481 111.636 436.398 111.085C435.764 106.886 436.988 102.943 438.44 98.9964C439.379 96.4442 440.921 94.1093 442.648 91.9948C444.047 90.2832 445.547 88.9353 447.463 87.8005C449.807 86.4128 452.313 85.2909 454.796 84.1656C456.428 83.4251 458.063 82.7046 459.742 82.0667C460.115 81.9247 460.702 81.5608 461.116 81.5594C461.991 81.5562 463.231 82.202 464.077 82.4423C466.857 83.2328 469.673 84.2449 472.547 84.6486C474.39 84.9077 476.117 84.616 477.841 84.002C478.017 83.9394 478.312 83.7781 478.674 83.5479C479.953 83.0556 481.164 82.436 482.218 81.5422C482.826 81.0271 483.377 80.3615 483.879 79.7524C484.03 79.5702 484.096 79.3614 484.098 79.1631C484.212 79.1035 484.288 79.034 484.305 78.9528C484.43 78.3533 483.287 78.3422 482.555 78.3779Z" fill="#1E9ECA"/>
<path fill-rule="evenodd" clip-rule="evenodd" d="M55.1484 135.145C54.4448 135.715 53.7547 136.297 53.0814 136.903C52.5683 137.364 51.6602 137.917 51.476 138.616C51.2845 139.342 51.889 140.023 52.3666 140.462C54.892 142.785 57.7356 144.356 61.235 144.617C66.6232 145.02 71.3125 143.644 75.9875 140.936C79.2714 139.034 81.4466 136.221 81.9217 132.423C85.8326 134.048 89.6151 136.288 92.8294 139.038C94.4154 140.395 95.7813 141.898 97.0449 143.564C97.854 144.631 98.6368 145.716 99.3632 146.842C99.679 147.331 100 148.199 100.521 148.481C101.133 148.812 101.873 148.293 101.843 147.613C101.817 147.047 101.206 146.39 100.92 145.927C100.445 145.158 99.963 144.394 99.4554 143.646C98.634 142.436 97.785 141.243 96.8591 140.11C94.7784 137.565 92.1308 135.462 89.3862 133.669C84.121 130.23 78.3426 128.063 71.936 127.879C67.9967 127.766 64.6828 129.112 61.314 131.122C59.2167 132.374 57.0516 133.604 55.1484 135.145Z" fill="#DDE3E9"/>
<path fill-rule="evenodd" clip-rule="evenodd" d="M100.708 110.987C96.6032 106.759 92.4838 102.584 87.8973 98.8617C85.1944 96.6681 82.3457 94.6734 79.5558 92.5935C79.8779 92.8754 80.1935 93.1656 80.5017 93.4628C79.6308 92.8716 78.4908 92.5376 77.5675 91.9903C76.5377 91.38 75.5533 90.6819 74.5877 89.9781C72.703 88.6048 70.8465 87.2053 68.9092 85.9036C66.7506 84.4534 64.5136 83.1133 62.3183 81.7178C60.4552 80.5334 58.5693 79.2371 56.5761 78.2689C55.4898 77.7412 54.4009 77.1156 53.3101 76.5652C52.9451 76.381 49.2408 74.042 49.2501 74.035C49.4549 73.8807 51.3189 74.7565 51.6072 74.8744C52.4493 75.2183 53.2546 75.6297 54.0642 76.0399C53.6198 75.1633 53.2681 74.2424 53.0766 73.2731C53.0174 72.9739 52.5435 70.7957 52.786 70.613C52.9071 70.5217 54.0889 74.4187 54.1495 74.7934C54.1987 75.0978 54.1914 75.536 54.2911 75.8242C54.4519 76.2896 54.4438 76.1491 54.7981 76.4113C55.4475 76.8919 56.3096 77.1922 57.0125 77.5939C57.3915 77.8055 58.565 78.6445 59.2718 78.8837C61.4105 79.9225 63.5782 81.5205 65.6103 82.8473C65.077 81.845 64.6711 80.797 64.3752 79.6987C64.3048 79.438 63.5453 77.0988 63.7295 76.9599C63.9369 76.8037 65.384 80.3762 65.4698 80.7144C65.629 81.3426 65.6621 82.0418 65.8614 82.6531C66.0803 83.324 66.7631 83.5618 67.3786 83.9529C69.6431 85.3917 71.8298 86.9204 73.9801 88.5193C76.3263 84.3466 73.621 79.3077 71.341 75.8066C69.6976 73.2834 67.4851 71.1201 65.1491 69.2315C62.0314 66.7109 58.4644 64.6973 54.9018 62.8554C50.7506 60.7093 46.2639 59.3796 41.5995 58.7653C39.1599 58.4439 36.664 58.4529 34.1998 58.5559C32.996 58.6062 31.8406 58.7656 30.6869 59.1582C30.167 59.3354 29.6645 59.5587 29.1748 59.8087C28.8027 59.9986 27.9027 60.1991 27.6888 60.4821C25.9278 62.7741 25.0269 65.0581 25.1645 67.9382C25.2946 70.6646 26.1556 73.3924 27.3242 75.8243C28.6256 78.5324 30.2993 80.9901 32.4883 83.0529C34.1584 84.6268 36.0256 85.9965 37.8805 87.3483C44.4776 92.1563 52.8417 96.3378 61.3862 95.2636C64.1521 94.916 66.7828 93.9487 69.2412 92.6343C69.8205 92.3245 70.3962 92.0113 70.943 91.6455C71.3118 91.3991 72.2974 90.2882 72.6681 90.2478C73.1764 90.1925 74.2714 91.2264 74.7483 91.5411C78.3724 93.9334 81.9015 96.4553 85.3567 99.0792C89.0327 101.871 92.5285 104.853 95.9213 107.974C97.3643 109.302 98.7982 110.633 100.199 112.005C100.526 112.325 101.323 113.501 101.915 113.554C102.289 113.588 102.541 113.268 102.488 112.922C102.395 112.32 101.129 111.42 100.708 110.987Z" fill="#063F8D"/>
<path fill-rule="evenodd" clip-rule="evenodd" d="M477.731 99.9583C476.141 99.6109 474.385 99.6375 472.765 99.6662C464.078 99.7843 455.548 103.897 449.996 110.469C445.27 116.063 443.97 123.019 443.036 130.05C442.944 130.748 442.904 131.442 442.852 132.141C442.841 132.291 442.824 132.425 442.806 132.551C442.439 132.88 442.246 133.262 442.464 133.683C441.655 135.453 440.97 137.268 440.383 139.14C438.655 144.651 436.897 150.266 437.98 156.06C438.233 152.872 438.765 149.611 439.402 146.475C439.438 146.295 439.478 146.116 439.519 145.938C439.523 145.919 439.527 145.9 439.531 145.882C439.757 144.921 440.05 143.99 440.406 143.073C440.409 143.062 440.413 143.053 440.417 143.043C440.464 142.922 440.514 142.802 440.563 142.682C440.665 142.433 440.77 142.185 440.881 141.939C440.919 141.855 440.955 141.77 440.989 141.684C441.508 140.413 441.727 138.982 442.191 137.667C442.302 137.368 442.419 137.07 442.54 136.774C442.548 136.756 442.555 136.739 442.562 136.721C442.891 135.924 443.255 135.137 443.639 134.357C443.848 134.2 443.959 133.811 444.139 133.457C444.177 133.387 444.468 132.922 444.555 132.654C444.781 132.216 445.006 131.778 445.234 131.341C445.228 131.344 445.221 131.346 445.214 131.349C445.442 130.929 445.671 130.511 445.898 130.095C445.948 130.004 445.998 129.912 446.048 129.821C446.13 129.675 446.211 129.529 446.293 129.383C447.054 128.022 447.86 126.687 448.698 125.369C448.997 124.899 449.712 124.225 449.849 123.696C449.854 123.677 449.855 123.659 449.858 123.64C451.676 121.086 453.769 118.731 456.279 116.865C455.976 117.193 455.331 118.306 455.16 118.526C454.639 119.201 454.072 119.829 453.503 120.464C452.485 121.603 451.491 122.778 450.608 124.021C448.992 126.293 447.598 128.684 446.281 131.123C446.268 131.138 446.254 131.151 446.243 131.166C445.58 131.982 445.164 133.216 444.687 134.15C446.573 133.276 448.659 132.707 450.595 131.931C452.526 131.158 454.404 130.296 456.217 129.285C458.627 127.941 461.127 126.423 463.404 124.705C466.014 123.087 468.207 120.859 470.142 118.521C472.432 115.755 474.531 112.964 475.829 109.605C476.467 107.955 476.968 106.234 477.266 104.493C477.279 104.417 477.295 104.335 477.313 104.249C477.617 103.648 477.89 103.033 478.118 102.404C478.48 101.406 479.336 100.309 477.731 99.9583Z" fill="#063F8D"/>
<path d="M254.766 159.507C254.788 159.375 254.799 159.177 254.799 159.012C254.799 157.318 253.655 156.394 252.335 156.394C250.883 156.394 249.64 157.516 249.64 159.221C249.64 160.926 250.894 162.048 252.566 162.048C253.27 162.048 254.018 161.85 254.502 161.542V160.486C254.007 160.86 253.38 161.157 252.632 161.157C251.565 161.157 250.773 160.574 250.63 159.507H254.766ZM252.313 157.285C252.962 157.285 253.754 157.648 253.842 158.726H250.652C250.828 157.725 251.598 157.285 252.313 157.285ZM255.607 161.905L255.618 161.927H260.898V160.981H257.675L257.664 160.959L259.05 159.298C259.985 158.176 260.612 157.274 260.612 156.185C260.612 154.711 259.523 153.842 258.115 153.842C257.356 153.842 256.674 154.095 256.212 154.48V155.591C256.74 155.107 257.378 154.81 258.049 154.81C258.951 154.81 259.567 155.327 259.567 156.229C259.567 156.988 259.138 157.67 258.236 158.748L255.607 161.905ZM252.544 177.048C253.336 177.048 254.029 176.718 254.502 176.08C255.019 175.376 255.261 174.287 255.261 172.945C255.261 171.603 255.019 170.514 254.502 169.81C254.029 169.172 253.336 168.842 252.544 168.842C251.752 168.842 251.059 169.172 250.586 169.81C250.069 170.514 249.827 171.603 249.827 172.945C249.827 174.287 250.069 175.376 250.586 176.08C251.059 176.718 251.752 177.048 252.544 177.048ZM252.544 176.08C252.071 176.08 251.708 175.871 251.444 175.541C250.982 174.947 250.872 173.902 250.872 172.945C250.872 171.988 250.982 170.943 251.444 170.349C251.708 170.019 252.071 169.81 252.544 169.81C253.017 169.81 253.38 170.019 253.644 170.349C254.106 170.943 254.216 171.988 254.216 172.945C254.216 173.902 254.106 174.947 253.644 175.541C253.38 175.871 253.017 176.08 252.544 176.08ZM259.344 177.048C260.136 177.048 260.829 176.718 261.302 176.08C261.819 175.376 262.061 174.287 262.061 172.945C262.061 171.603 261.819 170.514 261.302 169.81C260.829 169.172 260.136 168.842 259.344 168.842C258.552 168.842 257.859 169.172 257.386 169.81C256.869 170.514 256.627 171.603 256.627 172.945C256.627 174.287 256.869 175.376 257.386 176.08C257.859 176.718 258.552 177.048 259.344 177.048ZM259.344 176.08C258.871 176.08 258.508 175.871 258.244 175.541C257.782 174.947 257.672 173.902 257.672 172.945C257.672 171.988 257.782 170.943 258.244 170.349C258.508 170.019 258.871 169.81 259.344 169.81C259.817 169.81 260.18 170.019 260.444 170.349C260.906 170.943 261.016 171.988 261.016 172.945C261.016 173.902 260.906 174.947 260.444 175.541C260.18 175.871 259.817 176.08 259.344 176.08ZM252.544 192.048C253.336 192.048 254.029 191.718 254.502 191.08C255.019 190.376 255.261 189.287 255.261 187.945C255.261 186.603 255.019 185.514 254.502 184.81C254.029 184.172 253.336 183.842 252.544 183.842C251.752 183.842 251.059 184.172 250.586 184.81C250.069 185.514 249.827 186.603 249.827 187.945C249.827 189.287 250.069 190.376 250.586 191.08C251.059 191.718 251.752 192.048 252.544 192.048ZM252.544 191.08C252.071 191.08 251.708 190.871 251.444 190.541C250.982 189.947 250.872 188.902 250.872 187.945C250.872 186.988 250.982 185.943 251.444 185.349C251.708 185.019 252.071 184.81 252.544 184.81C253.017 184.81 253.38 185.019 253.644 185.349C254.106 185.943 254.216 186.988 254.216 187.945C254.216 188.902 254.106 189.947 253.644 190.541C253.38 190.871 253.017 191.08 252.544 191.08ZM259.344 192.048C260.136 192.048 260.829 191.718 261.302 191.08C261.819 190.376 262.061 189.287 262.061 187.945C262.061 186.603 261.819 185.514 261.302 184.81C260.829 184.172 260.136 183.842 259.344 183.842C258.552 183.842 257.859 184.172 257.386 184.81C256.869 185.514 256.627 186.603 256.627 187.945C256.627 189.287 256.869 190.376 257.386 191.08C257.859 191.718 258.552 192.048 259.344 192.048ZM259.344 191.08C258.871 191.08 258.508 190.871 258.244 190.541C257.782 189.947 257.672 188.902 257.672 187.945C257.672 186.988 257.782 185.943 258.244 185.349C258.508 185.019 258.871 184.81 259.344 184.81C259.817 184.81 260.18 185.019 260.444 185.349C260.906 185.943 261.016 186.988 261.016 187.945C261.016 188.902 260.906 189.947 260.444 190.541C260.18 190.871 259.817 191.08 259.344 191.08Z" fill="#E20000"/>
<path fill-rule="evenodd" clip-rule="evenodd" d="M68.7992 109.537C68.301 108.998 67.7415 108.511 67.0846 108.164C66.9186 108.077 65.6815 107.489 65.6009 107.618C65.4132 107.918 68.6496 109.365 68.7992 109.537ZM74.6645 105.934C74.6605 105.957 75.0894 106.685 75.2062 106.909C75.4548 107.385 75.6843 107.87 75.9002 108.356C75.5805 107.497 75.2521 106.701 74.6645 105.934ZM44.6673 111.859C44.2542 111.992 43.7575 111.468 44.2934 111.339C44.727 111.235 44.7057 111.211 44.9004 110.861C45.0585 110.578 45.1559 110.232 45.2946 109.934C45.5889 109.303 45.9227 108.701 46.3324 108.137C47.2105 106.927 48.2804 105.885 49.4804 105.007C51.5746 103.475 53.9227 102.074 56.4135 101.371C60.3739 100.252 64.8814 100.183 68.848 100.959C71.3046 101.439 73.5497 102.274 75.1809 104.252C75.9962 105.241 76.6362 106.399 76.916 107.674C76.989 108.007 76.9753 108.378 77.0667 108.704C77.2072 109.206 77.1452 109.072 77.7321 109.17C78.3729 109.276 79.0131 109.385 79.6532 109.496C81.329 109.786 83.0147 110.094 84.6477 110.564C85.1852 110.719 85.7108 110.908 86.2243 111.128C86.6126 111.294 88.1591 111.815 88.3469 112.32C88.6597 113.159 87.6117 112.779 87.286 112.596C87.0008 112.436 86.7079 112.286 86.4108 112.149C85.6626 111.803 84.8831 111.535 84.086 111.322C83.2246 111.091 82.3455 110.919 81.4699 110.747C80.6533 110.587 79.8337 110.44 79.013 110.301C78.5571 110.223 78.1008 110.148 77.6445 110.073C77.4886 110.047 77.2137 109.912 77.2345 110.115C76.2751 109.93 75.2377 109.956 74.2605 109.905C73.0636 109.843 71.8623 109.792 70.6614 109.829C69.7953 109.856 68.9284 109.913 68.0667 110.029C67.5631 110.097 67.0676 110.197 66.5736 110.323C66.3022 110.392 65.2321 110.539 65.0843 110.775C65.1478 110.674 66.3288 110.772 66.4791 110.767C67.0804 110.744 67.677 110.685 68.276 110.618C69.3877 110.493 70.4998 110.429 71.6148 110.438C71.6106 110.634 70.8489 110.982 70.663 111.112C70.2461 111.403 69.8468 111.721 69.4742 112.069C68.818 112.682 68.0322 113.441 67.5783 114.168C67.7121 113.954 68.372 113.675 68.6062 113.511C68.9814 113.249 69.3489 112.97 69.6967 112.671C70.0178 112.395 70.3174 112.097 70.612 111.792C70.9066 111.487 71.3064 110.854 71.6935 110.651C71.7169 110.639 71.8856 110.772 71.9814 110.727C72.078 110.681 72.1984 110.453 72.223 110.444C72.5833 110.305 73.2677 110.477 73.6465 110.495C74.6289 110.54 75.6104 110.599 76.5921 110.654C76.8963 110.67 77.1547 110.601 77.2696 110.825C77.3919 111.065 77.1677 111.694 77.1039 111.954C76.8672 112.922 76.4467 113.79 75.785 114.54C74.5456 115.944 73.0174 116.881 71.2909 117.507C64.6782 119.906 57.6431 120.867 51.0323 118.371C48.2955 117.338 44.1738 115.492 44.6673 111.859Z" fill="#063F8D"/>
<g opacity="0.6">
<path opacity="0.6" fill-rule="evenodd" clip-rule="evenodd" d="M502.791 243.322C509.77 278.791 340.517 301.927 194.836 285.781C49.1553 269.635 -17.676 206.584 51.8403 172.988C121.357 139.392 495.812 207.852 502.791 243.322Z" fill="#DDE3E9"/>
</g>
<path d="M186.65 22.4377H119.984C117.924 22.4377 116.254 24.1075 116.254 26.1673V159.499C116.254 161.559 117.924 163.229 119.984 163.229H186.65C188.709 163.229 190.379 161.559 190.379 159.499V26.1673C190.379 24.1075 188.709 22.4377 186.65 22.4377Z" fill="#F2F2F2"/>
<path d="M153.084 154.371C156.946 154.371 160.077 151.24 160.077 147.378C160.077 143.516 156.946 140.385 153.084 140.385C149.221 140.385 146.091 143.516 146.091 147.378C146.091 151.24 149.221 154.371 153.084 154.371Z" fill="white"/>
<path d="M147.023 31.7616C147.538 31.7616 147.955 31.3442 147.955 30.8292C147.955 30.3143 147.538 29.8968 147.023 29.8968C146.508 29.8968 146.091 30.3143 146.091 30.8292C146.091 31.3442 146.508 31.7616 147.023 31.7616Z" fill="white"/>
<path d="M159.144 29.8968H151.219C150.704 29.8968 150.286 30.3143 150.286 30.8292C150.286 31.3442 150.704 31.7616 151.219 31.7616H159.144C159.659 31.7616 160.076 31.3442 160.076 30.8292C160.076 30.3143 159.659 29.8968 159.144 29.8968Z" fill="white"/>
<path d="M181.988 35.4912H124.646C123.616 35.4912 122.781 36.3261 122.781 37.356V58.801C122.781 59.8309 123.616 60.6658 124.646 60.6658H181.988C183.018 60.6658 183.852 59.8309 183.852 58.801V37.356C183.852 36.3261 183.018 35.4912 181.988 35.4912Z" fill="white"/>
<path d="M173.596 43.0436H142.361C141.589 43.0436 140.962 43.6698 140.962 44.4422V45.4212C140.962 46.1936 141.589 46.8198 142.361 46.8198H173.596C174.369 46.8198 174.995 46.1936 174.995 45.4212V44.4422C174.995 43.6698 174.369 43.0436 173.596 43.0436Z" fill="#DDE3E9"/>
<path d="M162.407 49.3372H142.361C141.589 49.3372 140.962 49.9634 140.962 50.7358V51.7148C140.962 52.4873 141.589 53.1134 142.361 53.1134H162.407C163.18 53.1134 163.806 52.4873 163.806 51.7148V50.7358C163.806 49.9634 163.18 49.3372 162.407 49.3372Z" fill="#DDE3E9"/>
<path d="M132.571 53.6729C135.661 53.6729 138.165 51.1682 138.165 48.0785C138.165 44.9888 135.661 42.4842 132.571 42.4842C129.481 42.4842 126.977 44.9888 126.977 48.0785C126.977 51.1682 129.481 53.6729 132.571 53.6729Z" fill="#C5CFD6"/>
<path d="M181.988 64.3954H124.646C123.616 64.3954 122.781 65.2303 122.781 66.2601V82.1108C122.781 83.1407 123.616 83.9756 124.646 83.9756H181.988C183.018 83.9756 183.852 83.1407 183.852 82.1108V66.2601C183.852 65.2303 183.018 64.3954 181.988 64.3954Z" fill="white"/>
<path d="M173.596 70.2694H142.361C141.589 70.2694 140.962 70.8956 140.962 71.668V71.8079C140.962 72.5803 141.589 73.2064 142.361 73.2064H173.596C174.369 73.2064 174.995 72.5803 174.995 71.8079V71.668C174.995 70.8956 174.369 70.2694 173.596 70.2694Z" fill="#DDE3E9"/>
<path d="M162.407 75.1645H142.361C141.589 75.1645 140.962 75.7907 140.962 76.5631V76.7029C140.962 77.4754 141.589 78.1015 142.361 78.1015H162.407C163.18 78.1015 163.806 77.4754 163.806 76.7029V76.5631C163.806 75.7907 163.18 75.1645 162.407 75.1645Z" fill="#DDE3E9"/>
<path d="M132.571 79.7798C135.661 79.7798 138.165 77.2751 138.165 74.1855C138.165 71.0958 135.661 68.5911 132.571 68.5911C129.481 68.5911 126.977 71.0958 126.977 74.1855C126.977 77.2751 129.481 79.7798 132.571 79.7798Z" fill="#C5CFD6"/>
<path d="M181.988 87.7052H124.646C123.616 87.7052 122.781 88.54 122.781 89.5699V105.421C122.781 106.45 123.616 107.285 124.646 107.285H181.988C183.018 107.285 183.852 106.45 183.852 105.421V89.5699C183.852 88.54 183.018 87.7052 181.988 87.7052Z" fill="white"/>
<path d="M173.596 93.5792H142.361C141.589 93.5792 140.962 94.2054 140.962 94.9778V95.1177C140.962 95.8901 141.589 96.5163 142.361 96.5163H173.596C174.369 96.5163 174.995 95.8901 174.995 95.1177V94.9778C174.995 94.2054 174.369 93.5792 173.596 93.5792Z" fill="#DDE3E9"/>
<path d="M162.407 98.4743H142.361C141.589 98.4743 140.962 99.1004 140.962 99.8729V100.013C140.962 100.785 141.589 101.411 142.361 101.411H162.407C163.18 101.411 163.806 100.785 163.806 100.013V99.8729C163.806 99.1004 163.18 98.4743 162.407 98.4743Z" fill="#DDE3E9"/>
<path d="M132.571 103.09C135.661 103.09 138.165 100.585 138.165 97.4953C138.165 94.4056 135.661 91.9009 132.571 91.9009C129.481 91.9009 126.977 94.4056 126.977 97.4953C126.977 100.585 129.481 103.09 132.571 103.09Z" fill="#AFB9C5"/>
<path d="M181.988 111.015H124.646C123.616 111.015 122.781 111.85 122.781 112.88V128.73C122.781 129.76 123.616 130.595 124.646 130.595H181.988C183.018 130.595 183.852 129.76 183.852 128.73V112.88C183.852 111.85 183.018 111.015 181.988 111.015Z" fill="white"/>
<path d="M173.596 116.889H142.361C141.589 116.889 140.962 117.515 140.962 118.288V118.427C140.962 119.2 141.589 119.826 142.361 119.826H173.596C174.369 119.826 174.995 119.2 174.995 118.427V118.288C174.995 117.515 174.369 116.889 173.596 116.889Z" fill="#DDE3E9"/>
<path d="M162.407 121.784H142.361C141.589 121.784 140.962 122.41 140.962 123.183V123.323C140.962 124.095 141.589 124.721 142.361 124.721H162.407C163.18 124.721 163.806 124.095 163.806 123.323V123.183C163.806 122.41 163.18 121.784 162.407 121.784Z" fill="#DDE3E9"/>
<path d="M132.571 126.399C135.661 126.399 138.165 123.895 138.165 120.805C138.165 117.715 135.661 115.211 132.571 115.211C129.481 115.211 126.977 117.715 126.977 120.805C126.977 123.895 129.481 126.399 132.571 126.399Z" fill="#C5CFD6"/>
<path fill-rule="evenodd" clip-rule="evenodd" d="M141.101 138.186C140.483 138.186 139.867 138.198 139.251 138.23C138.78 138.255 138.062 138.158 137.664 138.451C137.251 138.755 137.279 139.378 137.344 139.818C137.685 142.145 138.518 144.209 140.261 145.857C142.945 148.396 146.021 149.686 149.662 150.26C152.219 150.664 154.58 150.104 156.463 148.285C157.838 150.838 158.882 153.663 159.406 156.514C159.664 157.921 159.743 159.311 159.697 160.744C159.668 161.662 159.617 162.577 159.519 163.49C159.476 163.887 159.274 164.488 159.429 164.863C159.612 165.303 160.227 165.346 160.503 164.97C160.732 164.658 160.69 164.044 160.737 163.674C160.816 163.06 160.888 162.445 160.94 161.828C161.024 160.829 161.086 159.827 161.082 158.824C161.071 156.57 160.57 154.308 159.885 152.169C158.57 148.066 156.437 144.419 153.12 141.557C151.08 139.798 148.745 139.085 146.096 138.703C144.447 138.464 142.771 138.186 141.101 138.186Z" fill="#1E9ECA"/>
<path fill-rule="evenodd" clip-rule="evenodd" d="M150.626 154.503C143.96 154.503 139.47 159.875 137.347 165.459C136.547 167.564 136.36 169.875 136.051 172.085C135.952 172.794 135.989 173.875 135.701 174.507C135.597 174.736 135.357 174.818 135.472 175.131C135.541 175.32 135.677 175.435 135.881 175.473C136.3 175.55 136.893 175.093 137.253 174.913C140.235 173.418 142.194 171.106 143.792 168.276C144.783 166.523 145.788 164.703 146.376 162.778C146.736 161.602 146.945 160.363 147.068 159.143C147.116 158.663 147.163 158.171 147.16 157.688C147.158 157.208 146.934 156.955 146.774 156.537C148.998 155.695 151.509 155.466 153.762 156.338C155.846 157.145 157.577 158.705 158.546 160.664C158.798 161.173 158.992 161.71 159.134 162.258C159.226 162.617 159.231 163.083 159.403 163.407C159.819 164.194 160.694 163.668 160.61 162.936C160.376 160.893 159.207 158.842 157.714 157.422C155.83 155.631 153.277 154.503 150.626 154.503Z" fill="#1E9ECA"/>
<path d="M228.214 36.5552H161.548C159.488 36.5552 157.819 38.225 157.819 40.2848V173.617C157.819 175.677 159.488 177.346 161.548 177.346H228.214C230.274 177.346 231.944 175.677 231.944 173.617V40.2848C231.944 38.225 230.274 36.5552 228.214 36.5552Z" fill="#DDE3E9"/>
<path d="M194.648 168.489C198.51 168.489 201.641 165.358 201.641 161.496C201.641 157.634 198.51 154.503 194.648 154.503C190.786 154.503 187.655 157.634 187.655 161.496C187.655 165.358 190.786 168.489 194.648 168.489Z" fill="white"/>
<path d="M188.588 45.8791C189.102 45.8791 189.52 45.4617 189.52 44.9468C189.52 44.4318 189.102 44.0144 188.588 44.0144C188.073 44.0144 187.655 44.4318 187.655 44.9468C187.655 45.4617 188.073 45.8791 188.588 45.8791Z" fill="white"/>
<path d="M200.709 44.0144H192.783C192.268 44.0144 191.851 44.4318 191.851 44.9468C191.851 45.4617 192.268 45.8791 192.783 45.8791H200.709C201.224 45.8791 201.641 45.4617 201.641 44.9468C201.641 44.4318 201.224 44.0144 200.709 44.0144Z" fill="white"/>
<path d="M223.552 49.6087H166.21C165.18 49.6087 164.345 50.4436 164.345 51.4735V72.9185C164.345 73.9484 165.18 74.7833 166.21 74.7833H223.552C224.582 74.7833 225.417 73.9484 225.417 72.9185V51.4735C225.417 50.4436 224.582 49.6087 223.552 49.6087Z" fill="white"/>
<path d="M201.175 57.1611H169.94C169.167 57.1611 168.541 57.7872 168.541 58.5597V59.5387C168.541 60.3111 169.167 60.9373 169.94 60.9373H201.175C201.947 60.9373 202.573 60.3111 202.573 59.5387V58.5597C202.573 57.7872 201.947 57.1611 201.175 57.1611Z" fill="#DDE3E9"/>
<path d="M189.986 63.4547H169.94C169.167 63.4547 168.541 64.0809 168.541 64.8533V65.8323C168.541 66.6047 169.167 67.2309 169.94 67.2309H189.986C190.759 67.2309 191.385 66.6047 191.385 65.8323V64.8533C191.385 64.0809 190.759 63.4547 189.986 63.4547Z" fill="#DDE3E9"/>
<path d="M218.89 65.4593C220.693 65.4593 222.154 63.9983 222.154 62.196C222.154 60.3937 220.693 58.9326 218.89 58.9326C217.088 58.9326 215.627 60.3937 215.627 62.196C215.627 63.9983 217.088 65.4593 218.89 65.4593Z" fill="#DDE3E9"/>
<path d="M218.89 63.5945C219.663 63.5945 220.289 62.9684 220.289 62.196C220.289 61.4235 219.663 60.7974 218.89 60.7974C218.118 60.7974 217.492 61.4235 217.492 62.196C217.492 62.9684 218.118 63.5945 218.89 63.5945Z" fill="#F2F2F2"/>
<path d="M223.552 78.5128H166.21C165.18 78.5128 164.345 79.3477 164.345 80.3776V96.2283C164.345 97.2582 165.18 98.0931 166.21 98.0931H223.552C224.582 98.0931 225.417 97.2582 225.417 96.2283V80.3776C225.417 79.3477 224.582 78.5128 223.552 78.5128Z" fill="white"/>
<path d="M215.161 84.3869H183.926C183.153 84.3869 182.527 85.013 182.527 85.7855V85.9253C182.527 86.6977 183.153 87.3239 183.926 87.3239H215.161C215.933 87.3239 216.559 86.6977 216.559 85.9253V85.7855C216.559 85.013 215.933 84.3869 215.161 84.3869Z" fill="#DDE3E9"/>
<path d="M203.972 89.2819H183.926C183.153 89.2819 182.527 89.9081 182.527 90.6805V90.8204C182.527 91.5928 183.153 92.2189 183.926 92.2189H203.972C204.744 92.2189 205.371 91.5928 205.371 90.8204V90.6805C205.371 89.9081 204.744 89.2819 203.972 89.2819Z" fill="#DDE3E9"/>
<path d="M174.135 93.8973C177.225 93.8973 179.73 91.3926 179.73 88.3029C179.73 85.2133 177.225 82.7086 174.135 82.7086C171.046 82.7086 168.541 85.2133 168.541 88.3029C168.541 91.3926 171.046 93.8973 174.135 93.8973Z" fill="#C5CFD6"/>
<path d="M223.552 101.823H166.21C165.18 101.823 164.345 102.658 164.345 103.687V119.538C164.345 120.568 165.18 121.403 166.21 121.403H223.552C224.582 121.403 225.417 120.568 225.417 119.538V103.687C225.417 102.658 224.582 101.823 223.552 101.823Z" fill="white"/>
<path d="M201.175 107.697H169.94C169.167 107.697 168.541 108.323 168.541 109.095V109.235C168.541 110.008 169.167 110.634 169.94 110.634H201.175C201.947 110.634 202.573 110.008 202.573 109.235V109.095C202.573 108.323 201.947 107.697 201.175 107.697Z" fill="#DDE3E9"/>
<path d="M189.986 112.592H169.94C169.167 112.592 168.541 113.218 168.541 113.99V114.13C168.541 114.903 169.167 115.529 169.94 115.529H189.986C190.759 115.529 191.385 114.903 191.385 114.13V113.99C191.385 113.218 190.759 112.592 189.986 112.592Z" fill="#AFB9C5"/>
<path d="M218.89 114.876C220.693 114.876 222.154 113.415 222.154 111.613C222.154 109.81 220.693 108.349 218.89 108.349C217.088 108.349 215.627 109.81 215.627 111.613C215.627 113.415 217.088 114.876 218.89 114.876Z" fill="#DDE3E9"/>
<path d="M218.89 113.011C219.663 113.011 220.289 112.385 220.289 111.613C220.289 110.84 219.663 110.214 218.89 110.214C218.118 110.214 217.492 110.84 217.492 111.613C217.492 112.385 218.118 113.011 218.89 113.011Z" fill="#F2F2F2"/>
<path d="M223.552 125.132H166.21C165.18 125.132 164.345 125.967 164.345 126.997V142.848C164.345 143.878 165.18 144.713 166.21 144.713H223.552C224.582 144.713 225.417 143.878 225.417 142.848V126.997C225.417 125.967 224.582 125.132 223.552 125.132Z" fill="white"/>
<path d="M215.161 131.006H183.926C183.153 131.006 182.527 131.633 182.527 132.405V132.545C182.527 133.317 183.153 133.943 183.926 133.943H215.161C215.933 133.943 216.559 133.317 216.559 132.545V132.405C216.559 131.633 215.933 131.006 215.161 131.006Z" fill="#DDE3E9"/>
<path d="M203.972 135.901H183.926C183.153 135.901 182.527 136.528 182.527 137.3V137.44C182.527 138.212 183.153 138.839 183.926 138.839H203.972C204.744 138.839 205.371 138.212 205.371 137.44V137.3C205.371 136.528 204.744 135.901 203.972 135.901Z" fill="#DDE3E9"/>
<path d="M174.135 140.517C177.225 140.517 179.73 138.012 179.73 134.923C179.73 131.833 177.225 129.328 174.135 129.328C171.046 129.328 168.541 131.833 168.541 134.923C168.541 138.012 171.046 140.517 174.135 140.517Z" fill="#C5CFD6"/>
<path d="M386.786 51.819H238.07C236.01 51.819 234.34 53.4888 234.34 55.5486V209.393C234.34 211.453 236.01 213.123 238.07 213.123H386.786C388.846 213.123 390.516 211.453 390.516 209.393V55.5486C390.516 53.4888 388.846 51.819 386.786 51.819Z" fill="#F2F2F2"/>
<path d="M379.327 71.8655H354.153C352.093 71.8655 350.423 73.5353 350.423 75.595V105.898C350.423 107.958 352.093 109.627 354.153 109.627H379.327C381.387 109.627 383.057 107.958 383.057 105.898V75.595C383.057 73.5353 381.387 71.8655 379.327 71.8655Z" fill="white"/>
<path d="M366.74 93.7767C370.859 93.7767 374.199 90.4371 374.199 86.3176C374.199 82.198 370.859 78.8584 366.74 78.8584C362.62 78.8584 359.281 82.198 359.281 86.3176C359.281 90.4371 362.62 93.7767 366.74 93.7767Z" fill="#DDE3E9"/>
<path d="M376.996 95.6415H356.484C355.711 95.6415 355.085 96.2676 355.085 97.0401C355.085 97.8125 355.711 98.4386 356.484 98.4386H376.996C377.769 98.4386 378.395 97.8125 378.395 97.0401C378.395 96.2676 377.769 95.6415 376.996 95.6415Z" fill="#DDE3E9"/>
<path d="M373.267 100.303H360.213C359.441 100.303 358.815 100.93 358.815 101.702C358.815 102.474 359.441 103.101 360.213 103.101H373.267C374.039 103.101 374.665 102.474 374.665 101.702C374.665 100.93 374.039 100.303 373.267 100.303Z" fill="#DDE3E9"/>
<path fill-rule="evenodd" clip-rule="evenodd" d="M238.07 51.819H386.786C388.846 51.819 390.516 53.4888 390.516 55.5486V64.4063H234.34V55.5486C234.34 53.4888 236.01 51.819 238.07 51.819Z" fill="#C5CFD6"/>
<path d="M240.401 60.2106C241.431 60.2106 242.266 59.3757 242.266 58.3458C242.266 57.3159 241.431 56.481 240.401 56.481C239.371 56.481 238.536 57.3159 238.536 58.3458C238.536 59.3757 239.371 60.2106 240.401 60.2106Z" fill="#F2F2F2"/>
<path d="M245.995 60.2106C247.025 60.2106 247.86 59.3757 247.86 58.3458C247.86 57.3159 247.025 56.481 245.995 56.481C244.965 56.481 244.13 57.3159 244.13 58.3458C244.13 59.3757 244.965 60.2106 245.995 60.2106Z" fill="#F2F2F2"/>
<path d="M251.589 60.2106C252.619 60.2106 253.454 59.3757 253.454 58.3458C253.454 57.3159 252.619 56.481 251.589 56.481C250.56 56.481 249.725 57.3159 249.725 58.3458C249.725 59.3757 250.56 60.2106 251.589 60.2106Z" fill="#F2F2F2"/>
<path d="M379.327 113.357H354.153C352.093 113.357 350.423 115.027 350.423 117.086V200.069C350.423 202.129 352.093 203.799 354.153 203.799H379.327C381.387 203.799 383.057 202.129 383.057 200.069V117.086C383.057 115.027 381.387 113.357 379.327 113.357Z" fill="white"/>
<path d="M372.8 121.748H360.679C359.649 121.748 358.814 122.583 358.814 123.613V132.005C358.814 133.035 359.649 133.87 360.679 133.87H372.8C373.83 133.87 374.665 133.035 374.665 132.005V123.613C374.665 122.583 373.83 121.748 372.8 121.748Z" fill="#DDE3E9"/>
<path d="M372.8 137.599H360.679C359.649 137.599 358.814 138.434 358.814 139.464V147.389C358.814 148.419 359.649 149.254 360.679 149.254H372.8C373.83 149.254 374.665 148.419 374.665 147.389V139.464C374.665 138.434 373.83 137.599 372.8 137.599Z" fill="#AFB9C5"/>
<path d="M372.8 152.984H360.679C359.649 152.984 358.814 153.818 358.814 154.848V162.774C358.814 163.804 359.649 164.638 360.679 164.638H372.8C373.83 164.638 374.665 163.804 374.665 162.774V154.848C374.665 153.818 373.83 152.984 372.8 152.984Z" fill="#DDE3E9"/>
<path d="M372.8 183.752H360.679C359.649 183.752 358.814 184.587 358.814 185.617V193.543C358.814 194.572 359.649 195.407 360.679 195.407H372.8C373.83 195.407 374.665 194.572 374.665 193.543V185.617C374.665 184.587 373.83 183.752 372.8 183.752Z" fill="#DDE3E9"/>
<path d="M372.8 168.368H360.679C359.649 168.368 358.814 169.203 358.814 170.233V178.158C358.814 179.188 359.649 180.023 360.679 180.023H372.8C373.83 180.023 374.665 179.188 374.665 178.158V170.233C374.665 169.203 373.83 168.368 372.8 168.368Z" fill="#C5CFD6"/>
<path d="M344.829 72.3317H243.664C242.634 72.3317 241.799 73.1666 241.799 74.1965V92.3781C241.799 93.408 242.634 94.2429 243.664 94.2429H344.829C345.859 94.2429 346.693 93.408 346.693 92.3781V74.1965C346.693 73.1666 345.859 72.3317 344.829 72.3317Z" fill="white"/>
<path d="M322.451 78.905H247.394C246.621 78.905 245.995 79.5312 245.995 80.3036V80.7931C245.995 81.5655 246.621 82.1917 247.394 82.1917H322.451C323.224 82.1917 323.85 81.5655 323.85 80.7931V80.3036C323.85 79.5312 323.224 78.905 322.451 78.905Z" fill="#DDE3E9"/>
<path d="M296.855 84.3828H247.394C246.621 84.3828 245.995 85.009 245.995 85.7814V86.2709C245.995 87.0433 246.621 87.6695 247.394 87.6695H296.855C297.628 87.6695 298.254 87.0433 298.254 86.2709V85.7814C298.254 85.009 297.628 84.3828 296.855 84.3828Z" fill="#DDE3E9"/>
<path d="M335.483 86.5506C337.286 86.5506 338.747 85.0896 338.747 83.2873C338.747 81.485 337.286 80.0239 335.483 80.0239C333.681 80.0239 332.22 81.485 332.22 83.2873C332.22 85.0896 333.681 86.5506 335.483 86.5506Z" fill="#DDE3E9"/>
<path d="M335.483 84.6859C336.256 84.6859 336.882 84.0597 336.882 83.2873C336.882 82.5148 336.256 81.8887 335.483 81.8887C334.711 81.8887 334.085 82.5148 334.085 83.2873C334.085 84.0597 334.711 84.6859 335.483 84.6859Z" fill="#F2F2F2"/>
<path d="M344.829 97.9724H243.664C242.634 97.9724 241.799 98.8073 241.799 99.8372V114.289C241.799 115.319 242.634 116.154 243.664 116.154H344.829C345.859 116.154 346.693 115.319 346.693 114.289V99.8372C346.693 98.8073 345.859 97.9724 344.829 97.9724Z" fill="white"/>
<path d="M322.486 103.427H247.359C246.606 103.427 245.995 104.037 245.995 104.791C245.995 105.544 246.606 106.154 247.359 106.154H322.486C323.239 106.154 323.85 105.544 323.85 104.791C323.85 104.037 323.239 103.427 322.486 103.427Z" fill="#DDE3E9"/>
<path d="M296.89 107.972H247.359C246.606 107.972 245.995 108.583 245.995 109.336C245.995 110.089 246.606 110.7 247.359 110.7H296.89C297.643 110.7 298.254 110.089 298.254 109.336C298.254 108.583 297.643 107.972 296.89 107.972Z" fill="#DDE3E9"/>
<path d="M335.483 110.327C337.286 110.327 338.747 108.866 338.747 107.063C338.747 105.261 337.286 103.8 335.483 103.8C333.681 103.8 332.22 105.261 332.22 107.063C332.22 108.866 333.681 110.327 335.483 110.327Z" fill="#DDE3E9"/>
<path d="M335.483 108.462C336.256 108.462 336.882 107.836 336.882 107.063C336.882 106.291 336.256 105.665 335.483 105.665C334.711 105.665 334.085 106.291 334.085 107.063C334.085 107.836 334.711 108.462 335.483 108.462Z" fill="#F2F2F2"/>
<path d="M344.829 119.884H243.664C242.634 119.884 241.799 120.719 241.799 121.748V136.2C241.799 137.23 242.634 138.065 243.664 138.065H344.829C345.859 138.065 346.693 137.23 346.693 136.2V121.748C346.693 120.719 345.859 119.884 344.829 119.884Z" fill="white"/>
<path d="M322.486 125.338H247.359C246.606 125.338 245.995 125.949 245.995 126.702C245.995 127.455 246.606 128.065 247.359 128.065H322.486C323.239 128.065 323.85 127.455 323.85 126.702C323.85 125.949 323.239 125.338 322.486 125.338Z" fill="#DDE3E9"/>
<path d="M296.89 129.884H247.359C246.606 129.884 245.995 130.494 245.995 131.247C245.995 132 246.606 132.611 247.359 132.611H296.89C297.643 132.611 298.254 132 298.254 131.247C298.254 130.494 297.643 129.884 296.89 129.884Z" fill="#DDE3E9"/>
<path d="M335.483 132.238C337.286 132.238 338.747 130.777 338.747 128.974C338.747 127.172 337.286 125.711 335.483 125.711C333.681 125.711 332.22 127.172 332.22 128.974C332.22 130.777 333.681 132.238 335.483 132.238Z" fill="#DDE3E9"/>
<path d="M335.483 130.373C336.256 130.373 336.882 129.747 336.882 128.974C336.882 128.202 336.256 127.576 335.483 127.576C334.711 127.576 334.085 128.202 334.085 128.974C334.085 129.747 334.711 130.373 335.483 130.373Z" fill="#AFB9C5"/>
<path d="M344.829 185.617H243.664C242.634 185.617 241.799 186.452 241.799 187.482V201.934C241.799 202.964 242.634 203.799 243.664 203.799H344.829C345.859 203.799 346.693 202.964 346.693 201.934V187.482C346.693 186.452 345.859 185.617 344.829 185.617Z" fill="white"/>
<path d="M322.486 191.072H247.359C246.606 191.072 245.995 191.682 245.995 192.435C245.995 193.188 246.606 193.799 247.359 193.799H322.486C323.239 193.799 323.85 193.188 323.85 192.435C323.85 191.682 323.239 191.072 322.486 191.072Z" fill="#DDE3E9"/>
<path d="M296.89 195.617H247.359C246.606 195.617 245.995 196.228 245.995 196.981C245.995 197.734 246.606 198.344 247.359 198.344H296.89C297.643 198.344 298.254 197.734 298.254 196.981C298.254 196.228 297.643 195.617 296.89 195.617Z" fill="#DDE3E9"/>
<path d="M335.483 197.971C337.286 197.971 338.747 196.51 338.747 194.708C338.747 192.906 337.286 191.445 335.483 191.445C333.681 191.445 332.22 192.906 332.22 194.708C332.22 196.51 333.681 197.971 335.483 197.971Z" fill="#DDE3E9"/>
<path d="M335.483 196.107C336.256 196.107 336.882 195.481 336.882 194.708C336.882 193.936 336.256 193.31 335.483 193.31C334.711 193.31 334.085 193.936 334.085 194.708C334.085 195.481 334.711 196.107 335.483 196.107Z" fill="#F2F2F2"/>
<path d="M344.829 163.706H243.664C242.634 163.706 241.799 164.541 241.799 165.571V180.023C241.799 181.053 242.634 181.888 243.664 181.888H344.829C345.859 181.888 346.693 181.053 346.693 180.023V165.571C346.693 164.541 345.859 163.706 344.829 163.706Z" fill="white"/>
<path d="M322.486 169.161H247.359C246.606 169.161 245.995 169.771 245.995 170.524C245.995 171.277 246.606 171.888 247.359 171.888H322.486C323.239 171.888 323.85 171.277 323.85 170.524C323.85 169.771 323.239 169.161 322.486 169.161Z" fill="#DDE3E9"/>
<path d="M296.89 173.706H247.359C246.606 173.706 245.995 174.316 245.995 175.07C245.995 175.823 246.606 176.433 247.359 176.433H296.89C297.643 176.433 298.254 175.823 298.254 175.07C298.254 174.316 297.643 173.706 296.89 173.706Z" fill="#DDE3E9"/>
<path d="M335.483 176.06C337.286 176.06 338.747 174.599 338.747 172.797C338.747 170.995 337.286 169.533 335.483 169.533C333.681 169.533 332.22 170.995 332.22 172.797C332.22 174.599 333.681 176.06 335.483 176.06Z" fill="#DDE3E9"/>
<path d="M335.483 174.195C336.256 174.195 336.882 173.569 336.882 172.797C336.882 172.024 336.256 171.398 335.483 171.398C334.711 171.398 334.085 172.024 334.085 172.797C334.085 173.569 334.711 174.195 335.483 174.195Z" fill="#F2F2F2"/>
<path d="M344.829 141.795H243.664C242.634 141.795 241.799 142.63 241.799 143.66V158.112C241.799 159.142 242.634 159.976 243.664 159.976H344.829C345.859 159.976 346.693 159.142 346.693 158.112V143.66C346.693 142.63 345.859 141.795 344.829 141.795Z" fill="white"/>
<path d="M322.486 147.249H247.359C246.606 147.249 245.995 147.86 245.995 148.613C245.995 149.366 246.606 149.977 247.359 149.977H322.486C323.239 149.977 323.85 149.366 323.85 148.613C323.85 147.86 323.239 147.249 322.486 147.249Z" fill="#DDE3E9"/>
<path d="M296.89 151.795H247.359C246.606 151.795 245.995 152.405 245.995 153.158C245.995 153.911 246.606 154.522 247.359 154.522H296.89C297.643 154.522 298.254 153.911 298.254 153.158C298.254 152.405 297.643 151.795 296.89 151.795Z" fill="#DDE3E9"/>
<path d="M335.483 154.149C337.286 154.149 338.747 152.688 338.747 150.886C338.747 149.083 337.286 147.622 335.483 147.622C333.681 147.622 332.22 149.083 332.22 150.886C332.22 152.688 333.681 154.149 335.483 154.149Z" fill="#DDE3E9"/>
<path d="M335.483 152.284C336.256 152.284 336.882 151.658 336.882 150.886C336.882 150.113 336.256 149.487 335.483 149.487C334.711 149.487 334.085 150.113 334.085 150.886C334.085 151.658 334.711 152.284 335.483 152.284Z" fill="#F2F2F2"/>
<path fill-rule="evenodd" clip-rule="evenodd" d="M477.398 139.233C475.559 137.986 473.114 137.659 470.913 137.659C462.319 137.659 454.24 140.848 447.261 145.6C443.437 148.203 440.016 151.518 436.996 154.97C435.252 156.963 433.698 159.119 432.597 161.516C431.855 163.134 431.345 164.82 431 166.559C430.578 168.679 430.244 170.841 430.093 172.996C430.033 173.844 429.54 178.346 430.951 178.423C430.943 178.534 430.941 178.639 430.949 178.734C427.886 183.524 425.994 189.137 424.239 194.459C422.712 199.09 421.351 203.76 420.468 208.551C419.305 214.858 418.541 221.26 418.178 227.658C418.1 229.033 418.047 230.409 418.001 231.786C417.961 232.96 417.922 234.135 417.883 235.309C417.84 236.625 417.609 238.14 417.818 239.449C418 240.588 418.986 240.416 419.03 239.282C419.082 237.912 419.074 236.54 419.134 235.17C419.213 233.351 419.296 231.533 419.385 229.715C420.004 217.085 422.328 204.64 426.618 192.71C428.354 187.882 430.343 183.311 432.899 178.845C435.147 174.919 437.851 171.117 440.614 167.576C443.3 164.136 446.093 160.775 449.384 157.86C452.055 155.494 454.993 153.433 458.013 151.516C461.848 149.08 465.677 146.704 469.831 144.835C471.991 143.863 474.192 142.993 476.368 142.061C476.76 141.893 477.18 141.73 477.556 141.536C478.813 140.888 478.399 139.912 477.398 139.233Z" fill="#1E9ECA"/>
<path fill-rule="evenodd" clip-rule="evenodd" d="M441.793 184.729C445.279 184.729 448.381 185.182 451.593 186.567C454.365 187.763 456.892 189.345 459.345 191.069C462.795 193.492 465.513 196.313 467.416 200.05C468.552 202.283 469.386 205.442 468.623 207.878C467.724 210.746 465.255 213.138 462.003 212.633C459.993 212.32 458.15 210.989 456.621 209.737C454.793 208.238 453.33 206.436 452.121 204.435C450.15 201.17 448.992 197.48 447.318 194.068C446.523 192.449 445.755 190.818 444.804 189.28C444.332 188.518 443.831 187.763 443.116 187.197C442.734 186.894 441.122 186.37 441.738 185.689C432.698 185.808 424.69 192.751 422.955 201.344C422.793 202.145 422.667 202.953 422.533 203.759C422.449 204.268 422.483 206.144 422.028 206.469C421.025 207.186 421.447 205.008 421.49 204.694C421.601 203.884 421.72 203.073 421.844 202.265C422.522 197.867 424.48 193.778 427.745 190.642C431.479 187.055 436.517 184.729 441.793 184.729Z" fill="#1E9ECA"/>
<path fill-rule="evenodd" clip-rule="evenodd" d="M4.63299 181.337C13.3352 195.936 23.4706 210.072 29.5572 226.034C29.3119 224.153 29.0519 222.273 28.7608 220.396C27.2164 210.447 25.2969 200.571 23.2799 190.707C22.2527 185.684 21.1664 180.68 20.0521 175.676C19.4529 172.989 18.861 170.3 18.2493 167.615C18.1012 166.964 17.9739 165.828 17.7884 164.677C23.7037 184.088 29.408 203.513 33.5805 223.391C34.1278 225.999 34.594 228.603 34.9758 231.203C35.1064 230.61 35.2349 230.017 35.3755 229.425C37.0638 222.336 39.5962 215.303 42.6115 208.674C44.053 205.504 45.7088 202.403 47.6583 199.514C48.874 197.713 51.741 195.572 52.85 193.728C46.7849 204.852 44.5949 218.77 41.0929 230.864C40.2381 233.815 39.378 236.762 38.5353 239.714C43.8165 229.122 52.0103 220.421 63.4026 216.65C49.6127 225.761 41.3413 241.718 35.7675 258.037C35.7492 258.231 35.7273 258.424 35.7085 258.618C37.3486 255.505 39.4146 252.69 42.2147 250.718C48.2077 246.496 54.8559 247.726 60.6693 251.347C56.1068 248.447 47.8609 251.088 44.0219 254.036C41.2737 256.146 38.9249 258.977 36.8853 261.739C36.3966 262.401 35.7299 263.173 35.0255 263.997C34.0379 270.408 32.4285 276.774 30.15 283.091C30.526 281.278 30.2542 278.378 30.3584 277.027C30.3698 276.881 30.379 276.734 30.3903 276.588C30.0439 277.971 29.7093 279.338 29.3871 280.683C30.0276 278.117 30.3756 275.437 30.6474 272.73C30.7173 271.566 30.7856 270.403 30.8577 269.24C30.8349 267.032 30.7439 264.815 30.5901 262.595C30.0447 260.437 29.4341 258.402 28.9305 256.709C27.1133 250.602 24.4493 244.75 21.1703 239.292C18.1787 234.311 14.5977 229.799 10.4637 225.718C8.23504 223.519 5.90268 221.424 3.60317 219.301C2.77166 218.533 1.2854 216.645 0 215.661C9.36144 220.823 18.9969 226.406 25.8261 234.722C25.0255 231.647 24.1559 228.616 23.236 225.646C18.5691 210.576 12.6765 194.957 4.63299 181.337Z" fill="#DDE3E9"/>
<path fill-rule="evenodd" clip-rule="evenodd" d="M13.9858 263.977C13.9858 280.712 15.3111 294.279 33.0999 294.279C50.8886 294.279 52.2139 280.712 52.2139 263.977" fill="#C5CFD6"/>
<path d="M382.86 16.3169C382.86 15.5444 382.234 14.9183 381.462 14.9183C380.689 14.9183 380.063 15.5444 380.063 16.3169V25.1746C380.063 25.947 380.689 26.5732 381.462 26.5732C382.234 26.5732 382.86 25.947 382.86 25.1746V16.3169Z" fill="#DDE3E9"/>
<path d="M389.387 8.85773C389.387 8.08531 388.761 7.45914 387.988 7.45914C387.216 7.45914 386.59 8.08531 386.59 8.85773V25.1746C386.59 25.947 387.216 26.5732 387.988 26.5732C388.761 26.5732 389.387 25.947 389.387 25.1746V8.85773Z" fill="#DDE3E9"/>
<path d="M395.914 5.12816C395.914 4.35574 395.287 3.72957 394.515 3.72957C393.743 3.72957 393.116 4.35574 393.116 5.12816V25.1746C393.116 25.947 393.743 26.5732 394.515 26.5732C395.287 26.5732 395.914 25.947 395.914 25.1746V5.12816Z" fill="#DDE3E9"/>
<path d="M402.44 8.85773C402.44 8.08531 401.814 7.45914 401.042 7.45914C400.269 7.45914 399.643 8.08531 399.643 8.85773V25.1746C399.643 25.947 400.269 26.5732 401.042 26.5732C401.814 26.5732 402.44 25.947 402.44 25.1746V8.85773Z" fill="#DDE3E9"/>
<path d="M408.967 1.39859C408.967 0.626169 408.341 0 407.569 0C406.796 0 406.17 0.626169 406.17 1.39859V25.1746C406.17 25.947 406.796 26.5732 407.569 26.5732C408.341 26.5732 408.967 25.947 408.967 25.1746V1.39859Z" fill="#C5CFD6"/>
<path fill-rule="evenodd" clip-rule="evenodd" d="M21.4047 164.083C21.4047 158.89 25.6014 154.64 30.7286 154.64V164.083L24.3567 170.957C22.5441 169.276 21.4047 166.811 21.4047 164.083Z" fill="#F2F2F2"/>
<path fill-rule="evenodd" clip-rule="evenodd" d="M30.4819 163.964H39.8978C39.8978 166.398 38.9049 168.678 37.3352 170.336C35.6088 172.148 33.1504 173.288 30.4819 173.288C28.0239 173.288 25.774 172.305 24.0471 170.75L30.4819 163.964Z" fill="#AFB9C5"/>
<path fill-rule="evenodd" clip-rule="evenodd" d="M40.0526 163.964C40.0526 158.837 35.8559 154.64 30.7286 154.64V163.964H40.0526ZM26.0667 154.64L29.7962 163.031L21.4047 159.302C22.2345 157.127 24.0979 155.47 26.0667 154.64Z" fill="#C5CFD6"/>
<path fill-rule="evenodd" clip-rule="evenodd" d="M484.924 168.397C484.028 169.348 482.759 169.945 481.347 169.945C478.635 169.945 476.437 167.753 476.437 165.05C476.437 162.346 478.635 160.155 481.347 160.155V151.064C473.632 151.064 467.317 157.359 467.317 165.05C467.317 172.741 473.632 179.036 481.347 179.036C485.4 179.036 489.063 177.327 491.559 174.608L484.924 168.397Z" fill="#F2F2F2"/>
<path fill-rule="evenodd" clip-rule="evenodd" d="M481.303 151.064V160.155C484.007 160.155 486.198 162.346 486.198 165.05H495.289C495.289 157.359 488.994 151.064 481.303 151.064Z" fill="#AFB9C5"/>
<path fill-rule="evenodd" clip-rule="evenodd" d="M486.01 165.05C486.01 166.638 485.262 168.05 484.1 168.962L489.817 176.238C493.144 173.633 495.289 169.595 495.289 165.05H486.01Z" fill="#C5CFD6"/>
<path fill-rule="evenodd" clip-rule="evenodd" d="M347.433 18.8389C346.744 19.568 345.768 20.0258 344.682 20.0258C342.596 20.0258 340.905 18.3456 340.905 16.273C340.905 14.2003 342.596 12.5201 344.682 12.5201V5.55047C338.747 5.55047 333.889 10.3767 333.889 16.273C333.889 22.1693 338.747 26.9955 344.682 26.9955C347.799 26.9955 350.617 25.6852 352.537 23.6007L347.433 18.8389Z" fill="#F2F2F2"/>
<path fill-rule="evenodd" clip-rule="evenodd" d="M344.612 5.55048V12.5201C346.685 12.5201 348.365 14.2003 348.365 16.273H355.334C355.334 10.3767 350.508 5.55048 344.612 5.55048Z" fill="#AFB9C5"/>
<path fill-rule="evenodd" clip-rule="evenodd" d="M348.375 16.273C348.375 17.4642 347.814 18.5231 346.943 19.2068L351.23 24.6645C353.726 22.7106 355.334 19.6818 355.334 16.273H348.375Z" fill="#C5CFD6"/>
<path fill-rule="evenodd" clip-rule="evenodd" d="M85.5694 27.1812C85.5674 27.1861 85.5655 27.1911 85.5625 27.197C85.5655 27.1921 85.5694 27.1723 85.5694 27.1812Z" fill="#C5CFD6"/>
<path fill-rule="evenodd" clip-rule="evenodd" d="M85.565 27.1896C85.565 27.1907 85.5638 27.193 85.5638 27.1953C85.5638 27.1896 85.5742 27.1723 85.565 27.1896Z" fill="#C5CFD6"/>
<path fill-rule="evenodd" clip-rule="evenodd" d="M85.5978 27.1092C85.5912 27.1281 85.5827 27.146 85.5752 27.1649C85.5789 27.1554 85.5827 27.1479 85.5865 27.1385C85.4884 27.3835 85.5506 27.2242 85.5978 27.1092Z" fill="#C5CFD6"/>
<path fill-rule="evenodd" clip-rule="evenodd" d="M85.5765 27.1654C85.5728 27.1739 85.569 27.1833 85.5652 27.1918C85.5378 27.2447 85.5765 27.1654 85.5765 27.1654Z" fill="#C5CFD6"/>
<path fill-rule="evenodd" clip-rule="evenodd" d="M85.5654 27.1893C85.5654 27.1879 85.5654 27.1879 85.5668 27.1865C85.5654 27.1879 85.5654 27.1879 85.5654 27.1893Z" fill="#C5CFD6"/>
<path fill-rule="evenodd" clip-rule="evenodd" d="M85.5609 27.1963C85.5549 27.2083 85.5889 27.1503 85.5609 27.1963V27.1963Z" fill="#C5CFD6"/>
<path fill-rule="evenodd" clip-rule="evenodd" d="M85.5649 27.1893L85.5677 27.1865C85.5663 27.1879 85.5663 27.1893 85.5649 27.1893Z" fill="#C5CFD6"/>
<path d="M105.612 2.94525H65.0532C64.0233 2.94525 63.1884 3.78014 63.1884 4.81003V30.4508C63.1884 31.4807 64.0233 32.3156 65.0532 32.3156H105.612C106.642 32.3156 107.477 31.4807 107.477 30.4508V4.81003C107.477 3.78014 106.642 2.94525 105.612 2.94525Z" fill="#DDE3E9"/>
<path fill-rule="evenodd" clip-rule="evenodd" d="M79.9714 11.3368L66.918 32.3156H93.0249L79.9714 11.3368Z" fill="#AFB9C5"/>
<path fill-rule="evenodd" clip-rule="evenodd" d="M92.7919 16.9311L81.3701 32.3156H104.214L92.7919 16.9311Z" fill="#C5CFD6"/>
<path d="M97.687 16.9311C100.004 16.9311 101.883 15.0526 101.883 12.7354C101.883 10.4181 100.004 8.53961 97.687 8.53961C95.3697 8.53961 93.4912 10.4181 93.4912 12.7354C93.4912 15.0526 95.3697 16.9311 97.687 16.9311Z" fill="white"/>
<path fill-rule="evenodd" clip-rule="evenodd" d="M430.673 258.305C430.675 258.309 430.677 258.314 430.68 258.32C430.677 258.315 430.673 258.296 430.673 258.305Z" fill="#C5CFD6"/>
<path fill-rule="evenodd" clip-rule="evenodd" d="M430.678 258.313C430.678 258.314 430.679 258.316 430.679 258.319C430.679 258.313 430.668 258.296 430.678 258.313Z" fill="#C5CFD6"/>
<path fill-rule="evenodd" clip-rule="evenodd" d="M430.645 258.233C430.651 258.251 430.66 258.269 430.667 258.288C430.664 258.279 430.66 258.271 430.656 258.262C430.754 258.507 430.692 258.348 430.645 258.233Z" fill="#C5CFD6"/>
<path fill-rule="evenodd" clip-rule="evenodd" d="M430.666 258.289C430.67 258.297 430.674 258.307 430.677 258.315C430.705 258.368 430.666 258.289 430.666 258.289Z" fill="#C5CFD6"/>
<path fill-rule="evenodd" clip-rule="evenodd" d="M430.677 258.313C430.677 258.311 430.677 258.311 430.676 258.31C430.677 258.311 430.677 258.311 430.677 258.313Z" fill="#C5CFD6"/>
<path fill-rule="evenodd" clip-rule="evenodd" d="M430.682 258.32C430.688 258.332 430.654 258.274 430.682 258.32V258.32Z" fill="#C5CFD6"/>
<path fill-rule="evenodd" clip-rule="evenodd" d="M430.678 258.313L430.675 258.31C430.676 258.311 430.676 258.313 430.678 258.313Z" fill="#C5CFD6"/>
<path d="M399.442 222.414H461.912C462.942 222.414 463.777 223.249 463.777 224.279V264.371C463.777 265.401 462.942 266.236 461.912 266.236H399.442C398.412 266.236 397.577 265.401 397.577 264.371V224.279C397.577 223.249 398.412 222.414 399.442 222.414Z" fill="#DDE3E9"/>
<path fill-rule="evenodd" clip-rule="evenodd" d="M439.196 235.001L458.336 266.236H420.056L439.196 235.001Z" fill="#AFB9C5"/>
<path fill-rule="evenodd" clip-rule="evenodd" d="M419.462 243.367L436.383 266.236H402.541L419.462 243.367Z" fill="#C5CFD6"/>
<path d="M412.262 243.393C408.786 243.393 405.968 240.575 405.968 237.099C405.968 233.623 408.786 230.805 412.262 230.805C415.738 230.805 418.556 233.623 418.556 237.099C418.556 240.575 415.738 243.393 412.262 243.393Z" fill="white"/>
<path d="M343.329 251.159C364.7 251.159 382.024 233.835 382.024 212.465C382.024 191.094 364.7 173.77 343.329 173.77C321.959 173.77 304.635 191.094 304.635 212.465C304.635 233.835 321.959 251.159 343.329 251.159Z" fill="#063F8D"/>
<path d="M342.863 246.031C343.893 246.031 344.728 245.196 344.728 244.166C344.728 243.136 343.893 242.301 342.863 242.301C341.833 242.301 340.998 243.136 340.998 244.166C340.998 245.196 341.833 246.031 342.863 246.031Z" fill="white"/>
<path d="M342.863 182.628C343.893 182.628 344.728 181.793 344.728 180.763C344.728 179.733 343.893 178.899 342.863 178.899C341.833 178.899 340.998 179.733 340.998 180.763C340.998 181.793 341.833 182.628 342.863 182.628Z" fill="white"/>
<path d="M312.56 217.127C313.59 217.127 314.425 216.292 314.425 215.262C314.425 214.232 313.59 213.397 312.56 213.397C311.53 213.397 310.696 214.232 310.696 215.262C310.696 216.292 311.53 217.127 312.56 217.127Z" fill="white"/>
<path d="M381.746 217.127H344.728V173.795C365.45 174.531 382.024 191.563 382.024 212.465C382.024 214.042 381.929 215.598 381.746 217.127Z" fill="#042759"/>
<path d="M375.963 217.127C376.993 217.127 377.828 216.292 377.828 215.262C377.828 214.232 376.993 213.397 375.963 213.397C374.933 213.397 374.098 214.232 374.098 215.262C374.098 216.292 374.933 217.127 375.963 217.127Z" fill="white"/>
<path d="M344.739 196.028C344.754 195.127 344.037 194.384 343.136 194.368C342.235 194.352 341.492 195.07 341.476 195.971L341.134 215.548C341.118 216.449 341.836 217.192 342.737 217.208C343.638 217.224 344.381 216.506 344.397 215.605L344.739 196.028Z" fill="white"/>
<path d="M343.26 213.953C342.359 213.937 341.616 214.655 341.6 215.556C341.584 216.457 342.302 217.2 343.203 217.216L360.45 217.517C361.351 217.533 362.094 216.815 362.11 215.914C362.125 215.013 361.408 214.27 360.507 214.254L343.26 213.953Z" fill="white"/>
<path fill-rule="evenodd" clip-rule="evenodd" d="M154.254 140.037C151.443 136.739 149.54 132.698 149.858 128.17C150.774 115.124 168.951 117.994 172.487 124.579C176.023 131.163 175.603 147.866 171.033 149.043C169.21 149.513 165.328 148.363 161.377 145.983L163.857 163.514H149.213L154.254 140.037Z" fill="#FFCA9A"/>
<path fill-rule="evenodd" clip-rule="evenodd" d="M166.703 117.407C164.702 116.797 161.797 116.591 160.575 116.73C161.27 115.066 161.546 113.213 161.321 111.407C161.102 109.654 160.318 108.16 159.592 106.595C159.258 105.874 158.879 105.156 158.314 104.605C157.739 104.043 157.01 103.672 156.246 103.495C155.464 103.313 154.647 103.328 153.864 103.493C153.517 103.566 153.206 103.724 152.867 103.812C152.519 103.902 152.35 103.684 152.097 103.466C151.489 102.939 150.597 102.679 149.827 102.586C148.963 102.481 148.067 102.612 147.243 102.895C146.441 103.171 145.671 103.62 145.091 104.273C144.833 104.564 144.599 104.895 144.446 105.261C144.384 105.411 144.374 105.5 144.224 105.554C144.085 105.605 143.923 105.607 143.78 105.655C142.398 106.123 141.216 107.19 140.572 108.561C140.197 109.36 140.019 110.768 140.067 112.345C140.116 113.923 141.542 118.04 142.875 119.541C144.066 120.882 145.815 121.766 147.504 122.153C146.383 123.433 145.637 125.033 145.085 126.659C144.486 128.426 144.115 130.262 143.978 132.133C143.848 133.91 143.836 135.79 144.253 137.529C144.643 139.156 145.478 140.49 146.87 141.337C147.508 141.725 148.195 142.016 148.885 142.282C149.566 142.544 150.248 142.8 150.961 142.947C152.31 143.225 153.864 143.178 154.903 142.105C155.277 141.718 155.689 141.232 155.962 140.76C156.061 140.59 156.12 140.479 156 140.313C155.857 140.114 155.626 139.961 155.443 139.806C154.395 138.919 153.747 137.734 153.583 136.327C153.418 134.899 153.801 133.056 155.191 132.433C156.906 131.663 158.795 132.546 160.32 133.37C160.968 131.085 162.298 129.028 164.384 127.98C166.691 126.82 169.339 126.684 171.711 125.69C172.329 125.43 172.958 125.136 173.413 124.608C173.603 124.387 173.826 124.101 173.902 123.809C174.002 123.425 173.754 123.104 173.563 122.805C172.549 121.219 168.704 118.017 166.703 117.407Z" fill="#191847"/>
<path d="M148.04 321.094C174.018 321.094 195.077 301.052 195.077 276.328C195.077 251.605 174.018 231.562 148.04 231.562C122.062 231.562 101.002 251.605 101.002 276.328C101.002 301.052 122.062 321.094 148.04 321.094Z" fill="#C5CFD6"/>
<path fill-rule="evenodd" clip-rule="evenodd" d="M236.889 314.367C229.063 297.052 223.403 281.975 221.131 274.021C217.241 260.401 214.281 248.416 213.533 243.94C211.749 233.267 227.25 232.647 229.299 237.951C232.401 245.979 237.816 272.357 244.324 312.199L236.889 314.367ZM146.129 260.028C153.306 257.191 178.441 248.312 190.564 245.801C194.047 245.079 197.423 244.408 200.598 243.803C210.033 242.002 214.923 259.028 205.836 260.335C183.204 263.592 151.121 266.953 148.375 267.331C144.527 267.859 141.618 261.811 146.129 260.028Z" fill="#B28B67"/>
<path fill-rule="evenodd" clip-rule="evenodd" d="M206.396 239.12L167.564 219.358V215.055H172.182C209.752 224.626 228.951 230.76 229.777 233.456C229.786 233.486 229.795 233.517 229.803 233.547C229.82 233.57 229.838 233.594 229.855 233.618C237.301 243.855 241.764 293.833 243.227 297.576L228.961 299.703C223.502 279.47 206.04 265.374 206.502 241.141C206.377 240.431 206.345 239.757 206.396 239.12Z" fill="#02285A"/>
<path fill-rule="evenodd" clip-rule="evenodd" d="M170.788 250.857C167.236 250.146 163.965 249.512 161.165 249.021C143.08 245.85 137.806 236.172 140.924 215.055L174.246 215.055C179.69 216.619 207.978 228.478 222.655 234.786C232.374 238.963 229.303 254.027 223.797 257.934C223.767 258.172 223.668 258.334 223.492 258.407C193.909 270.669 170.505 264.232 162.687 266.288L159.07 254.877L170.788 250.857Z" fill="#01408F"/>
<path fill-rule="evenodd" clip-rule="evenodd" d="M148.996 258.136C146.902 258.312 145.429 258.608 144.578 259.023C143.596 259.502 142.243 260.366 140.52 261.616C141.08 262.765 146.119 273.097 155.637 292.61C158.669 292.128 159.867 290.968 159.231 289.13C158.595 287.292 158.082 285.758 157.692 284.527L157.026 266.865C157.016 266.608 156.8 266.407 156.543 266.417C156.539 266.417 156.536 266.417 156.532 266.417L153.707 266.586C152.18 265.342 151.172 264.218 150.682 263.214C150.261 262.351 150.036 260.964 150.007 259.051L150.007 259.051C149.999 258.536 149.575 258.125 149.06 258.133C149.039 258.133 149.018 258.134 148.996 258.136Z" fill="#E4E4E4"/>
<path fill-rule="evenodd" clip-rule="evenodd" d="M233.44 310.745C232.681 312.704 232.301 314.158 232.301 315.105C232.301 316.198 232.484 317.792 232.852 319.889C234.131 319.889 245.625 319.889 267.336 319.889C268.232 316.952 267.715 315.367 265.784 315.133C263.853 314.899 262.25 314.687 260.972 314.499L244.806 307.355C244.57 307.25 244.295 307.357 244.191 307.592C244.19 307.596 244.188 307.599 244.187 307.602L243.1 310.216C241.313 311.042 239.86 311.456 238.743 311.456C237.783 311.456 236.438 311.05 234.705 310.238L234.705 310.238C234.239 310.019 233.684 310.22 233.465 310.686C233.456 310.706 233.448 310.725 233.44 310.745Z" fill="#E4E4E4"/>
<path fill-rule="evenodd" clip-rule="evenodd" d="M199.673 206.568L219.133 220.876C224.411 222.302 228.821 224.076 232.362 226.199C233.199 226.962 234.21 228.507 230.741 228.24C227.272 227.973 223.611 227.848 223.132 229.032C222.654 230.217 224.753 231.634 223.785 233.232C223.14 234.298 220.093 231.626 214.642 225.216L195.371 217.214L199.673 206.568ZM124.951 207.065L137.7 207.118C129.834 232.556 125.588 246.054 124.961 247.61C123.55 251.112 126.538 256.447 127.817 259.314C123.656 261.177 124.098 254.274 118.85 256.718C114.059 258.948 110.416 262.99 104.88 259.569C104.199 259.149 103.453 257.566 105.255 256.33C109.743 253.249 116.21 247.858 117.084 246.083C118.275 243.663 120.898 230.657 124.951 207.065Z" fill="#FFCA9A"/>
<path fill-rule="evenodd" clip-rule="evenodd" d="M161.213 153.44L166.488 152.533C186.06 169.459 194.095 201.98 218.085 219.205L212.31 226.372C170.689 221.217 160.377 181.55 161.213 153.44Z" fill="#01408F"/>
<path fill-rule="evenodd" clip-rule="evenodd" d="M138.191 219.877C159.343 219.877 174.902 219.877 184.867 219.877C187 219.877 186.598 216.793 186.29 215.237C182.732 197.28 168.841 177.922 168.841 152.36L155.377 150.247C144.241 168.178 140.39 190.256 138.191 219.877Z" fill="#DDE3E9"/>
<path fill-rule="evenodd" clip-rule="evenodd" d="M138.647 167.575C136.692 167.013 135.143 165.7 134.002 163.638C129.081 154.748 130.858 149.853 136.117 148.244C141.376 146.635 146.066 149.949 154.445 149.949C154.901 149.949 155.318 149.978 155.697 150.035L159.912 150.276C172.005 191.309 175.34 218.686 169.917 232.406H133.179C131.002 237.488 128.92 241.763 126.93 245.233H116.92C115.978 214.734 123.22 188.848 138.647 167.575Z" fill="#149FCC"/>
<path fill-rule="evenodd" clip-rule="evenodd" d="M141.098 211.63C142.253 221.308 144.131 228.333 146.732 232.703H133.098C135.637 226.776 138.304 219.751 141.098 211.63V211.63Z" fill="black" fill-opacity="0.1"/>
</svg>
