<svg width="466" height="323" viewBox="0 0 466 323" fill="none" xmlns="http://www.w3.org/2000/svg">
<path fill-rule="evenodd" clip-rule="evenodd" d="M0.42539 254.293C8.97552 205.72 95.4927 233.391 152.212 218.375C208.932 203.359 276.036 133.425 320.447 167.682C364.858 201.939 317.605 284.749 215.746 303.436C113.887 322.123 -8.12474 302.866 0.42539 254.293Z" fill="#F2F2F2"/>
<g opacity="0.5">
<path opacity="0.5" fill-rule="evenodd" clip-rule="evenodd" d="M69.1271 31.7884C62.7081 31.8601 56.2922 32.0956 49.8859 32.4987C43.7937 32.8824 37.1835 32.5911 31.1905 33.7653C29.4888 34.0984 27.19 35.6405 29.4528 37.3366C31.0432 38.529 36.862 37.1573 38.7612 37.0414C45.7554 36.614 52.7531 36.102 59.7571 35.856C66.3878 35.623 73.0181 35.5407 79.6519 35.475C80.6647 35.4652 82.346 35.1422 83.3546 35.4346C84.8037 35.8549 84.46 35.9691 84.5684 37.798C84.7652 41.1117 84.7108 44.4374 84.6447 47.7542C84.5808 50.9639 84.4614 54.1733 84.4731 57.3843C84.4812 59.6754 83.7446 64.2279 84.9009 66.2174C86.5652 69.0813 88.2916 65.9707 88.416 64.0676C88.6541 60.4278 88.5474 56.7433 88.5484 53.0989C88.5491 49.678 88.5739 46.2571 88.4527 42.838C88.3647 40.3681 88.7198 36.0566 87.3816 33.8113C86.0186 31.5245 82.7371 32.0176 80.3425 31.9086C76.6074 31.7378 72.8655 31.7498 69.1271 31.7884Z" fill="#063F8D"/>
<path opacity="0.5" fill-rule="evenodd" clip-rule="evenodd" d="M28.461 35.8131C28.4678 42.1772 27.7421 48.4988 27.5388 54.8555C27.4455 57.7781 27.2563 60.9875 27.9851 63.8565C28.7208 66.7534 31.0576 67.3811 31.3267 64.1471C31.8718 57.5982 31.7381 50.8076 32.1625 44.2062C32.3123 41.8755 33.2873 37.6041 32.3771 35.4216C31.5756 33.4991 28.4576 33.1306 28.461 35.8131Z" fill="#063F8D"/>
<path opacity="0.5" fill-rule="evenodd" clip-rule="evenodd" d="M88.2351 64.1971C77.1479 65.6698 65.5572 65.1329 54.3909 65.3643C49.0337 65.4755 43.6776 65.4825 38.3197 65.5386C36.4497 65.558 31.7011 64.8444 30.0834 65.8991C27.5083 67.5782 30.3023 68.8738 32.0071 68.9108C42.5806 69.1433 53.2718 68.6554 63.8432 68.3073C68.5929 68.151 73.3581 68.0745 78.0951 67.6695C81.0114 67.4201 84.1983 67.1785 87.0303 66.3922C87.6335 66.2243 88.9473 66.2593 89.0826 65.4335C89.1658 64.9227 89.0147 64.0892 88.2351 64.1971Z" fill="#063F8D"/>
<path opacity="0.5" fill-rule="evenodd" clip-rule="evenodd" d="M42.0264 74.0619C38.9163 74.0789 29.5441 72.7282 28.2561 75.5638C26.5389 79.3456 33.2376 78.4628 35.0391 78.4196C39.1309 78.3214 43.2198 78.3108 47.3126 78.3125C51.3284 78.3141 55.3439 78.2899 59.3591 78.2007C60.5223 78.1745 63.2299 78.626 63.8991 77.3162C64.4076 76.3209 64.0058 75.5356 63.0678 75.0088C60.8109 73.7405 54.9478 74.476 52.3054 74.3618C48.8843 74.2145 45.4518 74.0619 42.0264 74.0619Z" fill="#063F8D"/>
<path opacity="0.5" fill-rule="evenodd" clip-rule="evenodd" d="M79.7757 74.494C77.9652 74.6024 74.3029 73.8514 72.681 74.6849C70.8376 75.6327 71.4871 77.1165 73.0787 77.7686C74.1808 78.2199 78.7021 77.9832 79.7757 77.4602C80.8948 76.9147 82.1602 74.3463 79.7757 74.494Z" fill="#063F8D"/>
<path opacity="0.5" fill-rule="evenodd" clip-rule="evenodd" d="M99.1151 36.5545C97.2867 37.0705 97.8414 47.7477 97.7942 49.4403C97.6651 54.0777 97.1582 59.9104 98.6563 64.3766C99.6117 67.2237 101.447 66.8377 101.134 63.8401C100.859 61.2093 100.388 58.6086 100.185 55.9605C99.7234 49.9686 99.096 43.5774 99.5315 37.5806C99.7169 37.929 101.451 41.161 101.86 40.9198C101.736 40.995 99.859 36.3527 99.1151 36.5545Z" fill="#063F8D"/>
<path opacity="0.5" fill-rule="evenodd" clip-rule="evenodd" d="M120.292 32.8854C116.496 32.9417 112.7 33.0091 108.906 33.1146C105.888 33.1989 101.147 32.702 98.3799 33.9741C95.0851 35.4885 96.6482 38.8633 99.743 38.9346C102.481 38.9979 105.4 38.3791 108.163 38.2842C115.624 38.028 123.1 37.9736 130.565 37.9096C137.316 37.8513 144.355 38.573 151.047 37.5568C152.04 46.3911 149.355 55.2626 150.268 64.1984C150.41 65.5854 150.346 67.5451 152.108 67.861C154.332 68.2598 154.424 66.052 154.508 64.4711C154.749 59.9572 154.619 55.4397 154.948 50.9198C155.254 46.7312 155.856 42.4503 155.347 38.255C154.722 33.0924 152.254 33.5064 147.891 33.2917C138.675 32.8387 129.517 32.7498 120.292 32.8854Z" fill="#063F8D"/>
<path opacity="0.5" fill-rule="evenodd" clip-rule="evenodd" d="M107.693 64.2913C105.749 64.3376 102.522 63.7716 101.276 65.533C99.9808 67.3656 101.518 68.9642 103.402 69.3404C105.632 69.7856 108.54 69.1753 110.854 69.1686C113.264 69.162 115.675 69.1873 118.085 69.1963C128.419 69.2346 138.797 69.3824 149.123 68.9785C150.565 68.9222 154.658 69.3794 155.656 68.0718C156.542 66.9121 155.922 65.8719 154.756 65.2812C152.842 64.312 148.911 64.6806 146.782 64.6036C144.154 64.5091 141.522 64.4781 138.891 64.4395C128.51 64.288 118.074 64.0486 107.693 64.2913Z" fill="#063F8D"/>
<path opacity="0.5" fill-rule="evenodd" clip-rule="evenodd" d="M116.31 73.2236C112.463 73.2901 108.359 73.1186 104.55 73.7112C101.201 74.2323 100.789 77.5204 104.394 77.9051C107.706 78.2589 111.723 77.598 115.052 77.3808C116.234 77.3036 117.609 77.4132 118.176 76.0856C118.767 74.6986 117.637 73.3684 116.31 73.2236Z" fill="#063F8D"/>
<path opacity="0.5" fill-rule="evenodd" clip-rule="evenodd" d="M145.557 73.4773C143.537 73.526 137.637 72.6858 136.636 74.9179C134.971 78.6344 142.958 77.2225 144.49 77.1678C146.421 77.0991 153.948 78.1901 153.949 75.2155C153.951 72.2985 147.406 73.433 145.557 73.4773Z" fill="#063F8D"/>
<path opacity="0.5" fill-rule="evenodd" clip-rule="evenodd" d="M28.1173 93.1913C28.1221 100.317 27.6878 107.509 28.3245 114.616C28.5877 117.556 28.5426 123.187 30.2104 125.679C31.3942 127.448 33.0361 127.324 33.6828 125.2C34.115 123.78 33.4237 120.94 33.3466 119.421C33.2722 117.963 33.1855 116.506 33.1194 115.048C32.9498 111.291 32.9632 107.54 33.0138 103.782C33.0571 100.558 33.8174 96.2919 33.1005 93.1913C32.4322 90.3016 28.1173 89.6259 28.1173 93.1913Z" fill="#063F8D"/>
<path opacity="0.5" fill-rule="evenodd" clip-rule="evenodd" d="M99.4489 86.7397C87.0892 87.0332 74.7018 86.771 62.353 87.3502C56.2629 87.6357 50.1967 88.2629 44.1372 88.8881C41.1601 89.1956 38.1848 89.5123 35.213 89.8591C34.3162 89.9635 26.8642 90.237 29.667 92.9199C30.8909 94.0914 34.7855 92.8676 36.3265 92.6949C39.3103 92.3615 42.3 92.0707 45.288 91.7716C50.9737 91.2023 56.6665 90.6629 62.3765 90.3638C75.8245 89.6584 89.3279 89.87 102.789 89.3999C106.431 89.2728 110.061 89.1816 113.704 89.3174C114.66 89.353 121.689 89.691 118.637 87.2335C117.194 86.0709 111.753 86.6708 109.95 86.6359C106.45 86.5673 102.948 86.6565 99.4489 86.7397Z" fill="#063F8D"/>
<path opacity="0.5" fill-rule="evenodd" clip-rule="evenodd" d="M118.47 124.393C118.469 124.396 118.467 124.399 118.465 124.402C117.792 125.394 115.305 125.118 114.215 125.192C110.901 125.417 107.648 125.797 104.363 126.29C97.817 127.271 91.3282 127.874 84.7117 128.037C71.6257 128.361 58.4856 128.058 45.4192 128.955C42.5252 129.154 39.6751 129.494 36.8285 130.039C34.7958 130.428 30.8783 131.761 30.6407 128.403C30.3538 124.357 40.5072 124.364 43.4103 124.094C55.8756 122.935 68.5459 123.179 81.0495 123.353C87.0959 123.437 93.131 123.622 99.1725 123.252C105.208 122.883 111.448 122.98 117.44 122.331C116.668 119.34 116.781 115.599 116.564 112.542C116.008 104.695 116.157 96.82 115.799 88.9643C115.641 85.5032 120.357 84.9788 121.755 87.7803C123.167 90.6102 122.25 96.225 122.341 99.3626C122.552 106.627 123.899 114.759 122.476 121.943C121.981 124.442 119.873 125.755 118.47 124.393Z" fill="#063F8D"/>
<path opacity="0.5" fill-rule="evenodd" clip-rule="evenodd" d="M126.714 91.2472C125.04 91.4663 123.643 92.8456 124.391 94.5949C125.332 96.7975 128.137 95.9369 129.99 95.7975C135.879 95.3534 142.028 96.2401 147.846 95.5712C149.435 95.3884 151.74 94.5556 150.313 92.5009C149.241 90.9568 145.334 91.2278 143.673 91.08C137.993 90.5742 132.387 90.7092 126.714 91.2472Z" fill="#063F8D"/>
<path opacity="0.5" fill-rule="evenodd" clip-rule="evenodd" d="M136.711 101.475C134.437 101.626 129.141 101.507 128.183 104.055C126.463 108.626 133.198 107.015 135.249 106.755C137.631 106.453 143.247 107.262 144.515 104.988C146.784 100.921 138.706 101.34 136.711 101.475Z" fill="#063F8D"/>
<path opacity="0.5" fill-rule="evenodd" clip-rule="evenodd" d="M130.837 111.394C129.763 112.432 129.761 114.284 130.837 115.322C132.155 116.592 135.026 116.328 136.757 116.421C139.172 116.551 146.108 117.784 147.308 115.04C148.926 111.337 142.645 111.415 140.579 111.205C138.191 110.962 132.816 109.484 130.837 111.394Z" fill="#063F8D"/>
<path opacity="0.5" fill-rule="evenodd" clip-rule="evenodd" d="M45.5175 45.3215C45.5175 49.2151 51.8959 49.2151 51.8959 45.3215C51.8959 41.449 45.5175 41.3899 45.5175 45.3215Z" fill="#063F8D"/>
<path opacity="0.5" fill-rule="evenodd" clip-rule="evenodd" d="M57.7427 45.8543C57.7427 50.4595 65.1841 50.4503 65.1841 45.8543C65.1841 41.2652 57.7427 41.2184 57.7427 45.8543Z" fill="#063F8D"/>
<path opacity="0.5" fill-rule="evenodd" clip-rule="evenodd" d="M50.8395 57.2155C47.264 56.249 50.5579 53.2828 52.2181 52.6052C54.8566 51.528 58.4576 50.7341 61.0968 52.3489C62.1468 52.9915 62.9994 53.8454 62.2298 55.0925C61.4099 56.4202 60.2873 55.8298 59.039 55.7073C57.4576 55.5516 56.1795 55.5756 54.6524 56.072C53.5126 56.4425 52.0825 57.5503 50.8395 57.2155Z" fill="#063F8D"/>
<path opacity="0.5" fill-rule="evenodd" clip-rule="evenodd" d="M115.679 46.1156C115.679 48.9504 119.932 48.9504 119.932 46.1156C119.932 43.2808 115.679 43.2808 115.679 46.1156Z" fill="#063F8D"/>
<path opacity="0.5" fill-rule="evenodd" clip-rule="evenodd" d="M125.247 46.1156C125.247 48.9503 130.031 48.9506 130.031 46.1156C130.031 43.2806 125.247 43.2809 125.247 46.1156Z" fill="#063F8D"/>
<path opacity="0.5" fill-rule="evenodd" clip-rule="evenodd" d="M124.779 52.6226C122.281 52.9328 115.056 53.6382 114.651 56.6043C114.028 61.1802 121.945 57.4768 123.751 57.1174C126.053 56.6598 128.108 56.7793 130.406 56.8681C131.667 56.9167 133.345 57.1137 133.212 55.2628C132.996 52.2236 126.963 52.3531 124.779 52.6226Z" fill="#063F8D"/>
<path opacity="0.5" fill-rule="evenodd" clip-rule="evenodd" d="M60.6235 97.2019C58.7403 97.6653 56.2768 100.669 57.5725 102.507C59.697 105.522 60.6339 100.893 61.523 100.448C63.1408 99.6368 64.4541 102.599 66.1447 101.045C68.8125 98.5932 62.303 96.7869 60.6235 97.2019Z" fill="#063F8D"/>
<path opacity="0.5" fill-rule="evenodd" clip-rule="evenodd" d="M81.8258 95.0168C79.6642 95.0379 75.1008 98.2949 74.7775 100.7C74.5857 102.129 75.4758 103.501 76.9232 103.521C78.8939 103.546 79.5203 100.819 81.2286 100.249C83.0715 99.6336 82.798 101.05 84.3895 101.784C85.5543 102.322 87.011 102.097 87.4156 100.573C88.1788 97.6983 84.0468 94.9717 81.8258 95.0168Z" fill="#063F8D"/>
<path opacity="0.5" fill-rule="evenodd" clip-rule="evenodd" d="M65.2408 115.389C61.6928 113.224 67.5307 108.584 69.5546 108.003C72.61 107.128 78.7592 108.762 79.4833 112.649C79.7715 114.195 78.8424 115.596 77.203 115.32C75.8533 115.091 74.9876 113.328 73.7374 112.697C72.05 111.845 70.5497 111.903 69.1158 113.186C67.9477 114.231 67.3221 116.653 65.2408 115.389Z" fill="#063F8D"/>
<path opacity="0.5" fill-rule="evenodd" clip-rule="evenodd" d="M68.0997 138.372C64.9541 139.046 61.7564 138.594 58.5956 139.228C55.3725 139.875 53.4462 141.099 50.4518 139.866C50.3109 139.806 50.1704 139.746 50.0299 139.686C47.7122 138.683 45.2829 138.386 42.8569 139.985C41.4213 140.932 37.063 144.205 37.5883 146.203C38.7266 150.534 43.6307 143.743 44.8812 143.081C47.2658 141.819 48.9007 143.431 51.3558 143.886C54.2964 144.431 56.6626 142.869 59.4327 142.247C62.6725 141.519 66.3172 141.266 69.6132 140.876C70.9154 140.723 75.8478 141.758 76.2931 140.129C77.058 137.33 69.3361 138.108 68.0997 138.372Z" fill="#063F8D"/>
<path opacity="0.5" fill-rule="evenodd" clip-rule="evenodd" d="M90.3992 147.035C90.604 147.191 90.4398 147.066 90.3992 147.035V147.035ZM99.1731 138.196C101.855 137.923 110.436 136.001 112.198 138.782C113.345 140.593 111.524 147.278 109.787 148.143C108.398 148.833 105.164 148.07 103.64 148.016C100.806 147.916 97.9647 147.871 95.133 147.694C94.1834 147.634 91.1275 147.809 90.383 146.966C89.5038 145.97 89.543 140.661 89.336 139.344C91.8018 140.145 96.5949 138.459 99.1731 138.196ZM104.9 135.47C101.465 135.619 98.031 135.878 94.6219 136.341C92.7215 136.598 90.7961 137.283 89.041 137.608C88.4752 137.713 87.5569 137.422 86.8632 137.759C84.8359 138.741 86.6112 145.386 87.1001 147.161C87.8509 149.888 89.7407 150.33 92.3884 150.587C95.8761 150.926 99.4354 150.82 102.934 150.776C106.306 150.735 110.854 151.485 112.746 148.089C113.969 145.894 115.281 140.781 114.236 138.335C112.86 135.115 107.725 135.351 104.9 135.47Z" fill="#063F8D"/>
<path opacity="0.5" fill-rule="evenodd" clip-rule="evenodd" d="M142.918 148.638C142.736 148.869 142.736 148.869 142.918 148.638V148.638ZM143.665 147.748C143.609 147.832 143.347 148.105 143.665 147.748V147.748ZM135.537 147.503C137.039 147.224 138.542 146.947 140.046 146.676C138.622 148.647 137.122 147.832 134.689 147.661C134.972 147.608 135.255 147.556 135.537 147.503ZM128.37 146.806C128.751 146.68 129.131 146.554 129.512 146.428C129.501 146.715 129.563 146.983 129.699 147.233C129.047 147.163 128.396 147.088 127.745 147.009C127.953 146.941 128.162 146.874 128.37 146.806ZM125.048 144.381C125.027 143.864 125.814 144.219 126.264 144.185C125.395 144.941 124.99 145.007 125.048 144.381ZM136.927 138.517C137.041 138.372 137.193 138.38 137.381 138.538C137.176 138.607 136.383 138.939 136.927 138.517ZM144.63 137.621C144.651 137.621 145.078 138.192 144.63 137.621V137.621ZM144.414 137.434C144.526 137.519 144.526 137.519 144.414 137.434V137.434ZM143.453 137.323C145.028 137.586 144.908 139.413 143.453 137.323V137.323ZM124.948 137.199C124.628 137.461 124.737 137.207 124.948 137.199V137.199ZM130.971 133.309C128.297 133.462 123.389 133.307 121.156 134.716C118.241 136.554 119.775 142.882 120.036 145.656C120.421 149.757 122.373 150.924 126.279 151.355C130.942 151.868 135.732 151.964 140.418 151.842C144.638 151.733 147.042 150.298 147.815 145.905C148.052 144.561 148.653 142.482 148.634 141.195C148.621 140.302 148.171 139.895 148 139.136C147.031 134.813 145.41 134.3 140.928 134.111C137.629 133.973 134.208 133.141 130.971 133.309Z" fill="#063F8D"/>
</g>
<path fill-rule="evenodd" clip-rule="evenodd" d="M177.271 88.901C174.658 87.6054 171.175 89.108 172.628 92.5331C174.184 96.2009 179.939 96.2462 183.189 96.1735C182.864 96.1564 181.816 92.793 181.458 92.2848C180.4 90.7855 178.877 89.699 177.271 88.901ZM207.376 154.66C208.035 155.224 207.429 154.713 207.376 154.66V154.66ZM174.754 105.49C173.225 106.659 173.152 108.723 174.401 110.12C175.888 111.783 178.604 111.722 180.631 111.56C181.548 111.487 186.445 111.095 185.284 110.293C185.373 110.327 185.56 110.409 185.759 110.52C185.867 110.912 185.979 111.303 186.097 111.693C186.068 111.709 186.044 111.728 186.013 111.744C186.046 111.73 186.07 111.714 186.099 111.699C187.276 115.589 188.953 119.294 191.147 122.759C190.326 122.436 189.476 122.191 188.613 122.082C186.059 121.759 180.685 123.744 183.542 127.145C186.282 130.406 190.547 126.908 193.657 126.425C196.673 130.635 199.998 134.668 203.483 138.568C203.269 138.635 203.082 138.774 202.974 138.991C201.576 138.282 200.12 137.267 198.826 136.992C196.959 136.596 193.13 136.356 191.719 138.028C189.983 140.082 191.844 141.752 193.894 142.146C196.868 142.717 200.76 141.265 203.621 140.283C203.948 140.341 204.306 140.245 204.519 139.983C204.582 139.963 204.646 139.942 204.707 139.922C208.236 143.803 211.9 147.555 215.542 151.224C215.503 151.222 215.464 151.22 215.424 151.218C214.474 150.595 213.455 150.084 212.35 149.816C209.795 149.193 206.789 149.19 204.716 151.039C202.651 152.88 201.919 156.099 204.056 158.166C208.332 162.303 214.634 152.87 216.791 152.476C220.492 156.166 224.405 159.614 228.38 162.992C227.929 162.855 227.466 162.754 226.987 162.708C223.09 162.335 213.941 167.113 218.724 171.815C222.893 175.911 227.717 168.026 231.076 165.269C234.822 168.417 238.588 171.544 242.248 174.793C240.252 174.263 238.323 174.185 236.183 174.832C233.968 175.502 230.395 177.174 231.795 180.164C233.219 183.204 237.509 181.82 239.744 180.855C240.963 180.329 243.407 178.552 245.552 177.803C251.393 183.318 256.452 189.391 260.282 196.546C262.673 201.013 264.488 205.785 265.765 210.691C266.58 213.822 268.186 219.08 267.865 223.155C269.397 214.998 266.626 205.202 263.64 197.911C260.895 191.207 256.787 185.321 251.975 180.023C253.183 176.391 263.347 171.153 257.271 167.779C254.044 165.995 250.739 168.955 250.034 172.09C249.55 174.245 250.288 176.952 251.071 179.043C249.557 177.428 247.984 175.865 246.362 174.354C244.121 172.266 241.827 170.238 239.51 168.235C243.328 164.649 246.94 154.397 241.822 152.72C234.264 150.252 237.903 164.236 238.43 166.857C238.58 166.866 238.697 166.82 238.783 166.724C238.74 166.964 238.691 167.22 238.631 167.479C234.197 163.667 229.698 159.929 225.347 156.026C225.739 155.736 226.362 154.629 226.852 154.039C227.957 152.711 229.015 151.323 229.788 149.769C231.009 147.313 232.186 143.396 228.95 141.951C225.43 140.377 223.757 144.808 223.732 147.451C223.716 149.279 224.213 151.016 224.473 152.807C224.554 153.366 224.242 155.885 225.003 154.801C224.967 155.201 224.962 155.49 224.98 155.695C224.199 154.991 223.423 154.279 222.653 153.562C222.689 153.472 222.715 153.373 222.721 153.258C222.762 152.47 221.97 152.167 221.414 152.398C220.397 151.432 219.391 150.454 218.402 149.456C216.307 147.343 214.182 145.17 212.071 142.95C212.529 142.556 212.347 142.012 212.775 141.594C213.203 141.177 214.045 140.947 214.548 140.56C215.812 139.586 216.861 138.166 217.619 136.77C218.871 134.462 220.489 129.62 216.832 128.52C213.061 127.385 211.148 132.045 210.905 134.959C210.858 135.523 211.281 140.609 211.604 142.456C207.699 138.331 203.857 134.051 200.377 129.696C201.432 129.686 204.424 127.524 205.029 126.934C206.505 125.495 208.85 122.316 206.263 120.633C203.963 119.141 201.127 121.302 200.144 123.403C199.982 123.749 199.412 126.968 199.367 128.413C197.927 126.566 196.553 124.709 195.274 122.845C194.422 121.606 193.625 120.335 192.88 119.036C193.059 118.934 193.228 118.757 193.388 118.536C197.224 117.885 202.116 111.899 197.609 109.816C195.464 108.826 193.137 110.87 192.086 112.544C191.87 112.886 191.522 114.608 191.238 115.966C189.093 111.663 187.454 107.109 186.207 102.438C186.541 102.356 186.824 102.1 186.861 101.662C188.724 100.6 190.195 99.7154 191.495 97.6734C192.303 96.405 193.758 93.5072 191.384 92.8032C188.295 91.8872 186.355 96.6052 186.102 98.929C186.073 99.1988 186.074 99.9833 186.084 100.702C185.977 100.688 185.868 100.689 185.762 100.708C185.053 97.8162 184.486 94.8872 184.036 91.9533C185.722 91.4107 186.014 82.5564 184.891 81.2957C182.382 78.4727 180.612 82.5506 180.746 84.7059C180.904 87.2471 182.056 89.5588 183.427 91.6104C183.574 91.8276 183.532 91.8171 183.57 91.5144C183.591 91.664 183.641 91.7744 183.715 91.8544C183.645 93.1921 183.507 94.5616 183.573 95.7453C183.763 99.1351 184.158 102.545 184.731 105.891C184.87 106.705 185.03 107.512 185.209 108.312C183.854 107.157 182.027 106.132 181.312 105.811C179.457 104.979 176.597 104.081 174.754 105.49ZM268.082 223.167C267.996 224.349 267.783 225.431 267.384 226.324C267.683 225.307 267.912 224.251 268.082 223.167Z" fill="#F2F2F2"/>
<g opacity="0.7">
<path opacity="0.7" fill-rule="evenodd" clip-rule="evenodd" d="M50.9757 202.29C54.3721 202.11 58.5685 204.051 58.9241 207.679C59.1825 210.315 59.0961 212.944 59.4985 215.576C59.8204 217.679 60.5055 219.697 61.4414 221.612C62.3414 223.453 64.2124 225.019 64.6962 226.986C65.0045 228.24 64.8274 230.005 64.3967 231.233C63.873 232.726 64.1501 232.607 65.1859 233.857C67.2155 236.307 69.0425 238.819 70.3324 241.747C72.1903 245.964 73.4044 250.894 72.7034 255.515C72.6143 256.102 72.5059 258.207 71.6838 258.356C70.7657 258.522 71.1971 257.317 71.2468 256.928C71.5637 254.446 71.8452 252.277 71.4731 249.757C70.0375 240.035 62.9522 233.642 58.3462 225.397C58.0929 224.972 57.5585 223.959 57.1868 223.291C56.6001 222.237 56.0119 220.229 55.2164 219.448C53.7182 217.976 55.0926 220.938 55.3841 221.503C55.7525 222.219 56.1579 222.979 56.5357 223.605C58.2641 226.51 60.1936 229.68 61.9787 232.674C54.231 234.422 48.7937 225.281 46.7265 219.268C45.0233 214.314 42.996 202.728 50.9757 202.29Z" fill="#1E9ECA"/>
<path opacity="0.7" fill-rule="evenodd" clip-rule="evenodd" d="M84.6483 174.867C78.9086 180.818 76.1328 189.07 73.9342 196.828C71.4786 205.492 69.855 214.29 69.7881 223.297C69.7442 229.214 69.5795 235.169 69.923 241.079C70.0449 243.179 70.2538 245.281 70.5867 247.358C70.6141 247.528 71.3588 252.165 72.0742 251.084C72.4812 250.469 71.3109 246.274 71.2227 245.576C70.7264 241.64 70.6127 237.675 70.6391 233.711C70.6826 227.184 70.4928 220.69 71.1603 214.187C71.2598 213.216 71.3387 212.196 71.5707 211.246C71.817 210.236 71.5037 210.677 72.3045 210.277C73.0826 209.888 74.0438 209.943 74.8512 209.455C78.0537 207.519 79.6941 202.55 80.9705 199.289C82.4304 195.561 83.3185 191.585 84.0283 187.662C84.5495 184.779 84.9226 181.914 85.1344 178.995C85.2011 178.075 85.2056 177.113 85.3875 176.208C85.4365 175.964 85.6821 175.532 85.6733 175.316C85.6547 174.858 85.3777 174.59 85.3553 174.205C85.115 174.421 84.8791 174.641 84.6483 174.867Z" fill="#1B4079"/>
<path opacity="0.7" fill-rule="evenodd" clip-rule="evenodd" d="M53.6125 254.225C53.6125 264.206 61.7037 272.297 71.6845 272.297C81.6654 272.297 89.7565 264.206 89.7565 254.225" fill="#1B4079"/>
<path opacity="0.7" fill-rule="evenodd" clip-rule="evenodd" d="M72.6277 254.036H71.6846C71.75 252.849 71.8364 251.664 72.0343 250.49C72.7908 246 75.1565 239.405 80.3449 238.676C80.5364 238.649 81.2405 238.645 82.0934 238.695C82.4976 238.468 82.9504 238.331 83.4275 238.3C87.8449 237.973 92.7782 241.549 94.909 245.27C96.6267 248.27 96.3373 252.21 95.2764 255.397C94.5659 257.531 93.0153 260.573 90.4294 260.603C87.1941 260.64 87.0381 256.628 86.9755 254.283C86.8924 251.165 86.4997 248.448 84.0509 246.323C83.4802 245.828 82.8563 245.392 82.2798 244.904C81.3771 244.14 80.3795 243.357 80.2632 242.093C80.1027 240.348 81.084 240.035 82.5824 240.359C82.8378 240.414 85.4107 241.572 85.0298 240.657C84.9135 240.377 84.4887 240.155 83.9525 239.989C82.5651 239.838 80.9105 239.662 80.4347 239.767C75.3012 240.897 73.3025 248.032 72.7717 252.565C72.7144 253.054 72.6681 253.545 72.6277 254.036Z" fill="#1E9ECA"/>
</g>
<path fill-rule="evenodd" clip-rule="evenodd" d="M83.0055 204.173C82.3498 205.937 82.2747 207.75 81.9103 209.563C81.3622 212.291 80.1829 214.358 77.8781 216.301C77.1642 216.903 76.6382 217.521 76.2642 218.182C75.5218 218.843 74.8756 219.59 74.4009 220.503C73.7944 221.669 73.6228 223.069 74.323 224.231C74.5113 224.544 74.9809 225.172 75.4677 225.457C73.6453 228.839 72.6433 232.543 72.7562 236.242C72.8245 238.475 72.9496 240.71 73.0955 242.94C73.1348 243.539 73.3587 244.528 73.6948 243.523C74.0025 242.605 73.6167 241.163 73.581 240.203C73.4073 235.527 73.2588 231.276 75.4674 226.908C75.699 226.45 75.9446 225.996 76.2003 225.546C76.2881 225.515 76.3104 225.484 76.3365 225.451C76.4099 225.385 76.4739 225.301 76.5348 225.208C76.7307 224.972 76.9524 224.694 76.9536 224.542C78.3202 222.593 79.8862 220.755 81.4858 218.953C81.4738 218.966 83.2209 216.893 82.9508 218.04C82.8206 218.592 81.5355 219.644 81.0165 220.229C79.8683 221.531 78.5201 223.18 77.3997 224.775C77.249 224.851 77.036 225.222 76.8819 225.498C76.7969 225.638 76.7175 225.779 76.6395 225.902C80.6094 227.044 83.6975 224.742 85.8032 222.064C86.4512 221.315 87.1076 220.58 87.9277 219.995C89.2959 219.019 90.7611 218.847 92.3743 218.367C96.7734 217.057 98.6438 212.089 99.2378 208.403C99.908 204.244 96.6297 197.867 90.9062 198.277C86.8354 198.558 84.222 200.899 83.0055 204.173Z" fill="#1E9ECA"/>
<path fill-rule="evenodd" clip-rule="evenodd" d="M316.23 65.6747C314.644 60.3854 310.921 56.2455 307.056 52.4523C299.533 45.0678 295.486 40.5021 292.805 29.7C291.228 23.347 289.623 16.6148 284.621 12.0056C280.979 8.64916 274.711 5.82912 269.84 8.23263C262.347 12.7049 260.335 21.8828 261.091 30.101C262.027 40.2869 266.785 46.5675 275.926 50.3192C281.076 52.4322 284.5 55.2203 287.296 60.0784C289.532 63.9631 290.836 68.8276 293.646 72.3492C297.848 77.6136 303.105 79.9538 309.586 79.0793C303.516 67.9111 296.424 56.638 287.87 47.2349C287.069 46.2895 282.346 42.6712 283.299 41.0601C284.348 39.2861 289.197 45.9498 289.162 45.9096C291.648 48.7631 293.948 51.7954 296.207 54.8568C296.202 54.8598 296.195 54.8614 296.189 54.8646C298.514 58.006 300.822 61.1937 303.085 64.4213C304 65.7866 304.891 67.1694 305.744 68.5868C306.995 70.6666 308.981 76.5697 311.029 77.8486C311.468 78.122 311.873 78.2749 312.251 78.3379C313.649 80.6258 315.008 82.9321 316.301 85.2655C319.678 91.36 322.577 97.795 323.907 104.676C324.295 106.684 324.02 114.196 325.391 115.646C327.898 118.298 327.163 113.191 327.014 111.65C325.769 98.8861 321.186 88.0119 314.533 77.2813C316.577 74.612 316.872 67.8179 316.23 65.6747Z" fill="#F2F2F2"/>
<path fill-rule="evenodd" clip-rule="evenodd" d="M230.387 71.8419C233.029 68.7286 239.381 68.2003 243.266 68.4088C248.073 68.6666 253.01 69.8368 257.583 71.2517C265.117 73.5823 272.438 77.8354 279.072 81.952C279.872 82.448 289.723 88.3721 288.851 89.4118C287.987 90.4418 278.317 83.4048 276.162 82.192C271.562 79.6032 267.345 76.5415 262.275 74.8319C257.026 73.0614 251.475 72.3604 245.955 72.4087C245.246 72.415 242.936 71.9211 242.886 72.9692C242.837 73.9942 246.66 73.4594 247.335 73.4655C250.119 73.4911 252.921 73.7532 255.666 74.2358C260.81 75.1399 265.645 76.9612 270.05 79.7548C268.821 82.6127 265.875 83.9305 262.784 83.2153C260.112 82.5968 257.508 81.0722 254.892 80.6312C253.09 80.3277 251.286 80.5083 249.539 81.0159C244.931 82.3551 242.273 85.0988 237.207 83.1903C233.235 81.6942 226.592 76.3191 230.387 71.8419Z" fill="#F2F2F2"/>
<path fill-rule="evenodd" clip-rule="evenodd" d="M233.375 42.3792H234.625C234.538 40.7928 234.424 39.209 234.155 37.6404C233.151 31.7605 230.009 23.1246 223.118 22.1702C222.863 22.1346 221.928 22.1287 220.795 22.1944C220.259 21.8976 219.657 21.7181 219.024 21.6769C213.157 21.249 206.604 25.9314 203.774 30.8043C201.493 34.733 201.877 39.892 203.286 44.066C204.23 46.8604 206.29 50.8445 209.724 50.8834C214.021 50.932 214.228 45.6782 214.311 42.6069C214.422 38.5236 214.943 34.9665 218.196 32.1833C218.954 31.5349 219.782 30.9645 220.548 30.325C221.747 29.3243 223.072 28.2996 223.226 26.6439C223.439 24.3597 222.136 23.9486 220.146 24.373C219.807 24.4452 216.39 25.9621 216.896 24.7631C217.05 24.3969 217.614 24.1066 218.326 23.8891C220.169 23.6909 222.366 23.461 222.998 23.5983C229.817 25.0781 232.471 34.4211 233.176 40.3571C233.256 41.0293 233.32 41.7038 233.375 42.3792H233.375Z" fill="#F2F2F2"/>
<path fill-rule="evenodd" clip-rule="evenodd" d="M261.479 93.9913C264.774 90.1212 267.005 85.3784 266.632 80.0639C265.558 64.7515 244.252 68.12 240.107 75.8484C235.963 83.5768 236.455 103.181 241.812 104.562C243.948 105.113 248.498 103.763 253.13 100.971L250.223 121.546H267.388L261.479 93.9913Z" fill="#FFCA9A"/>
<path fill-rule="evenodd" clip-rule="evenodd" d="M247.677 76.9692C250.007 78.2728 251.665 80.7154 253.66 83.9193C254.146 83.7282 254.675 83.6233 255.229 83.6233C257.599 83.6233 259.521 85.5454 259.521 87.9164C259.521 89.1201 259.025 90.208 258.228 90.9876C259.221 92.3897 260.334 93.8544 261.609 95.3658C266.367 92.5096 269.907 84.1853 265.363 76.1491C261.454 60.0522 239.303 70.0434 235.041 67.3286C234.109 73.1699 237.114 77.8798 247.677 76.9692Z" fill="#191847"/>
<path fill-rule="evenodd" clip-rule="evenodd" d="M280.192 164.068L255.919 248.005L244.502 311.026H233.043L244.481 164.068H280.192Z" fill="#FFCA9A"/>
<path fill-rule="evenodd" clip-rule="evenodd" d="M291.1 164.068C289.407 207.673 290.074 231.456 290.454 235.418C290.833 239.379 292.985 265.912 307.649 312.356H295.731C276.31 267.801 269.53 241.268 267.303 235.418C265.076 229.567 258.497 205.784 248.893 164.068H291.1Z" fill="#FFCA9A"/>
<path fill-rule="evenodd" clip-rule="evenodd" d="M280.713 164.068C274.399 192.951 263.479 239.055 247.952 302.381H231.192C229.954 237.383 235.22 194.604 244.34 164.068H280.713Z" fill="#192F52"/>
<path fill-rule="evenodd" clip-rule="evenodd" d="M291.185 164.068C289.526 207.673 293.825 250.632 307.141 303.06H289.259C269.802 259.17 255.858 216.423 246.327 164.068H291.185Z" fill="#1B4079"/>
<path fill-rule="evenodd" clip-rule="evenodd" d="M307.471 313.002C308.281 315.123 308.686 316.698 308.686 317.728C308.686 318.926 308.487 320.674 308.089 322.973C306.703 322.973 294.253 322.973 270.738 322.973C269.767 319.754 270.327 318.016 272.418 317.759C274.51 317.502 276.247 317.27 277.63 317.064L295.112 309.244C295.38 309.124 295.695 309.244 295.815 309.512C295.817 309.517 295.819 309.522 295.821 309.527L296.988 312.368C298.924 313.274 300.497 313.728 301.708 313.728C302.737 313.728 304.176 313.291 306.025 312.419L306.025 312.419C306.556 312.169 307.189 312.396 307.44 312.927C307.451 312.951 307.462 312.976 307.471 313.002Z" fill="#E4E4E4"/>
<path fill-rule="evenodd" clip-rule="evenodd" d="M245.183 313.002C245.993 315.123 246.397 316.698 246.397 317.728C246.397 318.926 246.199 320.674 245.801 322.973C244.415 322.973 231.965 322.973 208.45 322.973C207.479 319.754 208.039 318.016 210.13 317.759C212.222 317.502 213.959 317.27 215.342 317.064L232.824 309.244C233.092 309.124 233.407 309.244 233.527 309.512C233.529 309.517 233.531 309.522 233.533 309.527L234.7 312.368C236.636 313.274 238.209 313.728 239.42 313.728C240.449 313.728 241.888 313.291 243.737 312.419L243.737 312.419C244.268 312.169 244.901 312.396 245.152 312.927C245.163 312.951 245.174 312.976 245.183 313.002Z" fill="#E4E4E4"/>
<path fill-rule="evenodd" clip-rule="evenodd" d="M307.781 156.463L296.33 151.548C313.12 131.68 322.094 121.167 323.252 120.007C325.859 117.397 325.207 111.459 325.151 108.394C329.606 108.308 326.573 114.345 332.228 114.152C337.39 113.975 342.211 111.732 345.886 116.921C346.338 117.559 346.405 119.267 344.312 119.691C339.098 120.746 331.22 123.125 329.757 124.387C327.761 126.108 320.435 136.8 307.781 156.463Z" fill="#FFC48E"/>
<path fill-rule="evenodd" clip-rule="evenodd" d="M252.921 123.388L256.765 119.836C272.125 122.864 290.238 142.341 298.405 141.171C306.127 140.066 312.814 131.939 320.484 121.849L327.995 126.709C325.296 142.452 311.332 163.341 300.402 163.692C282.928 164.254 262.434 139.034 252.921 123.388Z" fill="#01408F"/>
<path fill-rule="evenodd" clip-rule="evenodd" d="M221.142 160.79L229.279 151.352C205.479 140.856 192.805 135.34 191.255 134.805C187.768 133.602 185.752 127.979 184.458 125.2C180.416 127.075 185.789 131.172 180.621 133.477C175.905 135.581 170.588 135.679 169.559 141.953C169.433 142.725 170.121 144.289 172.188 143.753C177.338 142.416 185.46 141.1 187.329 141.593C189.878 142.265 201.149 148.664 221.142 160.79Z" fill="#FFC48E"/>
<path fill-rule="evenodd" clip-rule="evenodd" d="M256.825 111.994L251.964 110.056C238.709 118.387 228.779 143.061 220.735 144.896C213.13 146.631 203.974 141.441 193.198 134.77L187.928 141.998C196.089 155.729 216.611 170.226 226.941 166.637C243.456 160.899 253.551 130.009 256.825 111.994Z" fill="#01408F"/>
<path fill-rule="evenodd" clip-rule="evenodd" d="M257.071 105.793L251.853 105.629C235.26 124.676 231.935 157.264 211.116 177.198L217.671 183.358C257.164 172.726 261.712 132.908 257.071 105.793Z" fill="#02285A"/>
<path fill-rule="evenodd" clip-rule="evenodd" d="M288.555 167.07C268.14 169.939 253.123 172.05 243.504 173.402C241.445 173.691 241.414 170.652 241.5 169.105C242.492 151.244 253.266 130.626 249.789 105.888L262.496 102.016C275.684 117.86 282.403 138.703 288.555 167.07Z" fill="#DDE3E9"/>
<path fill-rule="evenodd" clip-rule="evenodd" d="M274.449 117.625C279.944 118.608 283.505 116.97 285.131 112.709C288.682 103.405 286.293 98.8936 280.982 98.0467C275.795 97.2196 271.774 100.878 264.033 102.112C263.897 101.929 263.762 101.748 263.628 101.569L258.137 102.665C252.029 144.161 252.537 171.202 259.66 183.789L300.34 178.072C295.985 157.183 284.85 134.573 274.449 117.625Z" fill="#01408F"/>
<path d="M382.55 43.8455L399.446 29.7401C401.024 28.4228 403.319 28.4228 404.897 29.7401L447.531 65.3322C449.467 66.948 450.586 69.3394 450.586 71.8607V293.761" stroke="#CBCBCB" stroke-width="8"/>
<path d="M464.405 293.23H436.234C435.354 293.23 434.64 293.944 434.64 294.824V295.356C434.64 296.236 435.354 296.95 436.234 296.95H464.405C465.286 296.95 466 296.236 466 295.356V294.824C466 293.944 465.286 293.23 464.405 293.23Z" fill="#AFB9C5"/>
<path fill-rule="evenodd" clip-rule="evenodd" d="M388.486 34.5528C395.336 41.4028 395.336 52.5088 388.486 59.3588L377.962 69.8825L353.156 45.0766L363.68 34.5528C370.53 27.7028 381.636 27.7028 388.486 34.5528Z" fill="#C5CFD6"/>
<path d="M363.536 59.637C370.386 66.4869 377.033 70.9462 378.382 69.5969C379.731 68.2477 375.272 61.6009 368.422 54.7509C361.572 47.901 354.925 43.4417 353.576 44.791C352.227 46.1402 356.686 52.787 363.536 59.637Z" fill="#F2F2F2"/>
<path fill-rule="evenodd" clip-rule="evenodd" d="M370.066 108.397C375.945 122.441 385.94 132.199 391.233 146.802C394.372 155.462 395.68 164.878 395.76 174.522C395.803 179.76 395.712 185.002 395.688 190.24C395.664 195.348 395.526 200.423 395.095 205.499C394.661 210.601 394.176 215.643 393.962 220.777C393.795 224.777 393.719 229.43 392.37 233.078C391.298 235.98 388.572 236.405 387.848 232.886C387.446 230.93 387.497 228.745 387.541 226.735C387.598 224.155 387.747 221.579 387.824 219C388.129 208.65 387.733 198.298 387.94 187.944C388.143 177.828 389.436 167.723 388.005 157.675C386.823 149.376 383.821 142.251 380.37 135.419C377.05 128.847 373.437 122.434 371.194 114.958C370.549 112.811 370.051 110.586 369.812 108.278C369.917 108.229 370.001 108.269 370.066 108.397Z" fill="#192F52" fill-opacity="0.4"/>
<path fill-rule="evenodd" clip-rule="evenodd" d="M368.464 136.104C369.628 136.95 370.278 138.186 371.065 139.406C372.044 140.922 373.194 142.291 374.173 143.809C376.212 146.973 378.005 150.331 379.864 153.623C383.395 159.872 386.075 166.532 387.403 173.761C388.779 181.253 389.15 188.986 389.727 196.59C390.339 204.649 390.956 212.767 391.037 220.857C391.073 224.481 391.268 228.329 390.835 231.928C390.566 234.168 389.56 236.078 387.292 236.06C382.476 236.022 380.214 230.658 379.269 226.26C377.879 219.783 377.601 212.904 377.822 206.28C378.087 198.294 379.466 190.427 380.063 182.471C380.695 174.049 380.338 165.776 377.458 157.845C376.003 153.838 374.314 149.927 372.797 145.946C372.151 144.251 371.622 142.51 370.75 140.932C369.78 139.176 368.575 137.582 367.816 135.692C368.032 135.829 368.248 135.967 368.464 136.104Z" fill="#192F52" fill-opacity="0.4"/>
<path fill-rule="evenodd" clip-rule="evenodd" d="M423.949 119.31C424.097 119.195 424.245 119.079 424.392 118.963C423.967 120.765 423.199 122.229 422.611 123.876C422.083 125.356 421.816 127.032 421.46 128.65C420.625 132.452 419.66 136.167 418.871 140.001C417.31 147.586 417.605 155.759 418.629 164.175C419.596 172.125 421.126 180.063 421.855 188.011C422.459 194.603 422.718 201.401 422.142 207.69C421.751 211.961 420.467 217.061 416.97 216.63C415.323 216.427 414.464 214.435 414.118 212.186C413.562 208.574 413.446 204.776 413.229 201.184C412.746 193.167 412.649 185.174 412.554 177.239C412.464 169.753 412.215 162.118 412.712 154.82C413.192 147.778 414.693 141.432 416.84 135.578C417.97 132.493 419.047 129.336 420.317 126.396C420.927 124.986 421.671 123.74 422.28 122.331C422.77 121.198 423.16 120.035 423.949 119.31Z" fill="#192F52" fill-opacity="0.4"/>
<path fill-rule="evenodd" clip-rule="evenodd" d="M369.951 159.313C370.588 158.238 371.99 161.783 372.204 162.229C372.113 162.007 372.023 161.786 371.931 161.564C373.196 163.678 374.352 165.878 375.071 168.301C375.783 170.7 376.394 173.147 377.062 175.563C378.315 180.095 379.931 184.499 381.066 189.073C382.172 193.529 382.451 197.911 382.183 202.52C381.905 207.312 381.734 212.176 382.059 216.965C382.214 219.252 382.953 221.382 383.46 223.584C383.967 225.788 384.367 228.021 384.967 230.198C385.104 229.914 385.122 230.862 385.121 230.934C385.118 231.478 385.042 231.934 384.868 232.449C384.421 233.775 383.584 234.902 382.311 235.268C380.011 235.928 377.874 233.825 377.133 231.603C376.068 228.416 375.482 224.893 374.974 221.543C374.509 218.471 374.399 215.38 374.538 212.266C374.81 206.124 375.915 200.063 376.214 193.923C376.54 187.238 375.223 180.957 374.119 174.45C373.588 171.315 373.08 168.209 372.046 165.222C371.628 164.013 371.082 162.945 370.51 161.828C370.184 161.193 369.526 160.059 369.951 159.313Z" fill="#1E9ECA"/>
<path fill-rule="evenodd" clip-rule="evenodd" d="M388.617 148.871C388.353 156.529 387.898 164.129 386.883 171.706C385.846 179.439 384.656 187.145 383.658 194.885C382.688 202.418 381.67 210.077 381.806 217.716C381.906 223.342 380.977 232.861 387.194 235.638C393.49 238.45 394.84 226.44 395.253 222.476C396.046 214.871 395.789 207.185 395.405 199.538C395.01 191.69 394.351 183.882 393.534 176.062C392.627 167.376 391.916 158.652 391.345 149.941C391.062 145.633 390.992 141.331 391.07 137.022C391.144 132.955 390.99 128.847 389.552 124.986C389.477 125.041 389.402 125.095 389.326 125.15" fill="#063F8D"/>
<path fill-rule="evenodd" clip-rule="evenodd" d="M421.119 173.133C419.987 174.791 418.846 176.433 417.776 178.189C415.863 181.332 414.133 184.826 413.613 189.32C412.524 198.723 413.397 208.88 413.608 218.571C413.651 220.551 413.402 222.472 414.179 224.357C414.883 226.066 416.199 227.368 417.454 227.361C420.14 227.346 419.73 220.734 419.734 217.824C419.742 212.723 419.173 207.57 419.222 202.474C419.271 197.425 419.577 192.362 420.305 187.567C421.042 182.714 422.122 178.053 423.546 173.704C423.744 173.101 425.163 168.437 423.822 169.241" fill="#1E9ECA"/>
<path fill-rule="evenodd" clip-rule="evenodd" d="M409.258 122.978C407.492 122.978 407.503 131.828 407.45 132.965C407.258 137.067 407.303 141.17 407.182 145.273C406.916 154.227 406.59 163.259 405.252 172.109C404.531 176.874 403.696 181.617 402.798 186.345C401.897 191.087 400.688 195.824 400.095 200.626C399.526 205.242 399.848 209.949 399.926 214.588C400.004 219.255 400.144 223.932 400.752 228.558C400.903 229.7 401.078 230.837 401.267 231.972C401.424 232.918 401.332 234.091 401.598 234.99C402.023 236.43 403.847 236.901 405.075 236.676C408.398 236.066 410.521 231.871 411.656 228.807C413.106 224.893 413.875 220.648 414.634 216.524C415.494 211.852 415.998 207.108 416.234 202.352C416.715 192.684 416.098 183.006 415.409 173.37C415.026 168.011 414.583 162.675 413.906 157.349C413.232 152.046 412.366 146.766 411.803 141.447C411.394 137.582 410.99 133.711 410.725 129.831C410.662 128.906 410.608 122.978 409.258 122.978Z" fill="#063F8D"/>
<path fill-rule="evenodd" clip-rule="evenodd" d="M407.047 187.307C406.759 178.015 403.044 137.203 402.199 125.967C401.987 123.155 399.952 111.446 399.688 108.258C398.972 109.159 399.034 123.185 399.042 126.408C399.05 129.596 398.657 132.732 398.454 135.903C398.248 139.138 393.49 180.925 392.872 184.034C391.644 190.219 390.822 196.566 390.187 202.89C389.57 209.054 388.609 215.557 389.436 221.753C389.626 223.179 389.927 224.583 390.416 225.893C390.945 227.309 391.308 228.619 391.732 230.1C392.415 232.487 393.651 234.581 395.55 235.566C399.444 237.586 401.534 233.013 402.594 229.032C404.287 222.674 405.373 216.212 405.882 209.535C406.446 202.148 407.278 194.745 407.047 187.307Z" fill="#192F52" fill-opacity="0.4"/>
<path d="M425.326 214.648H366.882C366.295 214.648 365.819 215.124 365.819 215.711V274.475C365.819 275.062 366.295 275.538 366.882 275.538H425.326C425.913 275.538 426.389 275.062 426.389 274.475V215.711C426.389 215.124 425.913 214.648 425.326 214.648Z" fill="white"/>
<path d="M364.756 221.339H360.226C359.639 221.339 359.163 221.815 359.163 222.402V295.887C359.163 296.474 359.639 296.95 360.226 296.95H364.756C365.343 296.95 365.819 296.474 365.819 295.887V222.402C365.819 221.815 365.343 221.339 364.756 221.339Z" fill="#C5CFD6"/>
<path d="M398.036 221.339H393.506C392.919 221.339 392.443 221.815 392.443 222.402V295.887C392.443 296.474 392.919 296.95 393.506 296.95H398.036C398.623 296.95 399.099 296.474 399.099 295.887V222.402C399.099 221.815 398.623 221.339 398.036 221.339Z" fill="#C5CFD6"/>
<path d="M431.982 221.339H427.452C426.865 221.339 426.389 221.815 426.389 222.402V295.887C426.389 296.474 426.865 296.95 427.452 296.95H431.982C432.569 296.95 433.045 296.474 433.045 295.887V222.402C433.045 221.815 432.569 221.339 431.982 221.339Z" fill="#C5CFD6"/>
</svg>
